<svg aria-hidden="true" style="position: absolute; width: 0; height: 0; overflow: hidden;" version="1.1" xmlns="http://www.w3.org/2000/svg" xmlns:xlink="http://www.w3.org/1999/xlink">
<defs>
<symbol id="icon1" viewBox="0 0 32 32">
<path fill="#0ecc8d" style="fill: var(--color1, #0ecc8d)" d="M14.657 2.076c0.63-0.974 2.056-0.974 2.686 0l1.412 2.181c0.412 0.636 1.212 0.896 1.919 0.624l2.424-0.935c1.083-0.418 2.236 0.42 2.173 1.579l-0.14 2.594c-0.041 0.756 0.454 1.438 1.186 1.632l2.511 0.668c1.121 0.299 1.562 1.654 0.83 2.555l-1.638 2.016c-0.478 0.588-0.478 1.43 0 2.018l1.638 2.016c0.732 0.901 0.291 2.256-0.83 2.555l-2.511 0.668c-0.732 0.195-1.227 0.876-1.186 1.632l0.14 2.594c0.063 1.159-1.091 1.997-2.173 1.579l-2.424-0.935c-0.707-0.273-1.508-0.012-1.919 0.624l-1.412 2.181c-0.63 0.974-2.056 0.974-2.686 0l-1.412-2.181c-0.412-0.636-1.212-0.896-1.919-0.624l-2.424 0.935c-1.083 0.418-2.236-0.42-2.173-1.579l0.14-2.594c0.041-0.756-0.454-1.437-1.186-1.632l-2.511-0.668c-1.121-0.299-1.562-1.654-0.83-2.555l1.638-2.016c0.478-0.588 0.478-1.43 0-2.018l-1.638-2.016c-0.732-0.901-0.291-2.256 0.83-2.555l2.511-0.668c0.732-0.195 1.227-0.876 1.186-1.632l-0.14-2.594c-0.063-1.159 1.091-1.997 2.173-1.579l2.424 0.935c0.707 0.273 1.508 0.012 1.919-0.624l1.412-2.181z"></path>
<path fill="#fff" style="fill: var(--color2, #fff)" d="M7.139 19.2v-6.259h1.45l1.632 3.11 0.614 1.382h0.038c-0.026-0.333-0.061-0.704-0.106-1.114s-0.067-0.8-0.067-1.171v-2.208h1.344v6.259h-1.45l-1.632-3.12-0.614-1.363h-0.038c0.032 0.346 0.067 0.717 0.106 1.114 0.045 0.397 0.067 0.781 0.067 1.152v2.218h-1.344zM15.54 19.315c-0.454 0-0.864-0.099-1.229-0.298s-0.653-0.483-0.864-0.854c-0.211-0.371-0.317-0.819-0.317-1.344 0-0.518 0.106-0.963 0.317-1.334 0.218-0.371 0.499-0.656 0.845-0.854 0.346-0.205 0.707-0.307 1.085-0.307 0.454 0 0.829 0.102 1.123 0.307 0.301 0.198 0.525 0.47 0.672 0.816 0.154 0.339 0.23 0.726 0.23 1.162 0 0.122-0.006 0.243-0.019 0.365-0.013 0.115-0.026 0.202-0.038 0.259h-2.851c0.064 0.346 0.208 0.602 0.432 0.768 0.224 0.16 0.493 0.24 0.806 0.24 0.339 0 0.682-0.106 1.027-0.317l0.47 0.854c-0.243 0.166-0.515 0.298-0.816 0.394s-0.592 0.144-0.874 0.144zM14.484 16.301h1.718c0-0.262-0.064-0.477-0.192-0.643-0.122-0.173-0.323-0.259-0.605-0.259-0.218 0-0.413 0.077-0.586 0.23-0.173 0.147-0.285 0.371-0.336 0.672zM19.118 19.2l-1.19-4.762h1.402l0.461 2.208c0.038 0.237 0.074 0.47 0.106 0.701s0.067 0.467 0.106 0.71h0.038c0.045-0.243 0.086-0.483 0.125-0.72 0.045-0.237 0.096-0.467 0.154-0.691l0.528-2.208h1.219l0.538 2.208c0.058 0.237 0.109 0.47 0.154 0.701 0.051 0.23 0.099 0.467 0.144 0.71h0.038c0.045-0.243 0.080-0.48 0.106-0.71 0.032-0.23 0.070-0.464 0.115-0.701l0.451-2.208h1.306l-1.142 4.762h-1.651l-0.432-1.901c-0.045-0.224-0.090-0.448-0.134-0.672-0.038-0.224-0.080-0.464-0.125-0.72h-0.038c-0.045 0.256-0.086 0.496-0.125 0.72-0.032 0.224-0.070 0.448-0.115 0.672l-0.422 1.901h-1.613z"></path>
</symbol>
    <symbol id="icon2" viewBox="0 0 32 32">
        <path fill="#924dbf" style="fill: var(--color1, #924dbf)" d="M20.8 8c0-3.535-2.866-6.4-6.4-6.4s-6.4 2.865-6.4 6.4c0 3.535 2.866 6.4 6.4 6.4s6.4-2.865 6.4-6.4z"></path>
        <path fill="#924dbf" style="fill: var(--color1, #924dbf)" d="M19.2 14.4c-1.223 0.925-3.157 1.6-4.8 1.6-1.674 0-3.565-0.642-4.8-1.6-7.837 1.886-8.143 8.375-7.986 14.366 0.026 0.991 0.582 1.634 1.586 1.634l14.4-0v-4.8c0-1.63 0.491-3.2 3.2-3.2l5.6-0c0-4.8-3.2-8-7.2-8z"></path>
        <path fill="none" stroke="#924dbf" style="stroke: var(--color1, #924dbf)" stroke-linejoin="round" stroke-linecap="round" stroke-miterlimit="4" stroke-width="1.6" d="M20.8 27.2h9.6M30.4 27.2l-2.4-2.4M30.4 27.2l-2.4 2.4"></path>
    </symbol>
    <symbol id="icon3" viewBox="0 0 32 32">
        <path fill="#eea956" style="fill: var(--color2, #eea956)" d="M10.754 23.12l3.646 3.904c0.362 0.377 1.024 0.103 1.024-0.411v-3.459l2.894-0c1.579 0 2.861-1.335 2.861-2.978l0-12.398c0-1.643-1.283-2.978-2.861-2.978h-15.457c-1.579 0-2.861 1.335-2.861 2.978v12.364c0 1.643 1.283 2.978 2.861 2.978h7.893zM6.577 11.887l2.565-0.205 0.987-2.499c0.197-0.479 0.822-0.479 0.987 0l0.987 2.499 2.565 0.205c0.493 0.034 0.691 0.65 0.296 0.993l-1.973 1.746 0.625 2.602c0.131 0.479-0.395 0.89-0.822 0.616l-2.204-1.404-2.204 1.404c-0.428 0.274-0.921-0.137-0.822-0.616l0.625-2.602-1.973-1.746c-0.329-0.308-0.132-0.958 0.362-0.993zM24.896 9.764c-0.724 0-1.315-0.616-1.315-1.369s0.592-1.369 1.315-1.369h5.788c0.724 0 1.315 0.616 1.315 1.369s-0.592 1.369-1.315 1.369h-5.788zM23.614 13.838c0-0.753 0.592-1.369 1.316-1.369h4.276c0.724 0 1.315 0.616 1.315 1.369s-0.592 1.369-1.315 1.369h-4.308c-0.724 0-1.283-0.616-1.283-1.369zM23.614 19.281c0-0.753 0.592-1.369 1.316-1.369h2.598c0.724 0 1.315 0.616 1.315 1.369s-0.592 1.369-1.315 1.369h-2.631c-0.724 0-1.283-0.616-1.283-1.369z"></path>
    </symbol>
    <symbol id="icon4" viewBox="0 0 37 32">
        <path fill="none" stroke="#f7f7f7" style="stroke: var(--color1, #f7f7f7)" stroke-linejoin="round" stroke-linecap="round" stroke-miterlimit="4" stroke-width="5.3333" d="M2.667 16h32M34.667 16l-12.444-13.333M34.667 16l-12.444 13.333"></path>
    </symbol>
    <symbol id="icon5" viewBox="0 0 32 32">
        <path fill="#3ed6a4" style="fill: var(--color1, #3ed6a4)" d="M17.112 32c-8.994 0-16.312-7.177-16.312-16s7.317-16 16.312-16c4.902 0 9.499 2.133 12.612 5.853 0.605 0.722 0.736 1.554 0 2.147-0.519 0.418-1.434 0.347-1.724 0-2.456-2.934-6.4-5.6-10.889-5.6-7.093 0-13.911 6.643-13.911 13.6s6.819 13.6 13.911 13.6c4.455 0 9.317-3.196 11.689-6.903 0.506-0.791 1.177-0.789 1.592-0.533 0.866 0.533 1.050 1.541 0.544 2.332-3.007 4.699-8.175 7.504-13.824 7.504z"></path>
        <path fill="#3ed6a4" style="fill: var(--color1, #3ed6a4)" d="M13.6 8l11.2 7.549-11.2 6.851v-14.4z"></path>
    </symbol>
    <symbol id="iconLike" viewBox="0 0 32 32">
        <path d="M6.856 2.058c3.116-0.955 6.556-0.392 9.147 1.459 2.451-1.8 6.017-2.408 9.13-1.459 5.924 1.813 8.050 7.94 6.244 13.3-2.813 8.497-15.374 15.041-15.374 15.041s-12.468-6.445-15.376-15.041c-1.807-5.361 0.305-11.487 6.229-13.3zM22.012 6.837c-0.642-0.164-1.296 0.223-1.46 0.865s0.223 1.296 0.865 1.46c2.212 0.566 3.524 2.052 3.675 3.531 0.068 0.659 0.657 1.139 1.316 1.071s1.139-0.657 1.071-1.316c-0.282-2.752-2.576-4.872-5.468-5.612z"></path>
    </symbol>
    <symbol id="iconMessage" viewBox="0 0 31 32">
        <path fill="#f4f6f8" style="fill: var(--color1, #f4f6f8)" d="M30.82 14.712c-0.284-4.21-2.41-8.142-5.776-10.751s-7.761-3.688-12.014-2.992c-7.584 1.288-13.147 8.176-12.616 15.761 0.248 3.653 1.807 7.028 4.43 9.603-0.673 0.974-1.276 1.601-2.87 2.853-0.319 0.244-0.461 0.626-0.354 1.009 0.071 0.383 0.354 0.696 0.709 0.8 0.531 0.174 1.311 0.244 2.197 0.244 1.878 0 4.252-0.418 6.095-1.357 2.445 0.835 5.068 1.044 7.655 0.591 7.584-1.322 13.077-8.246 12.545-15.761l0 0zM8.53 18.434c-1.382 0-2.481-1.079-2.481-2.435s1.098-2.435 2.481-2.435c1.382 0 2.481 1.079 2.481 2.435s-1.098 2.435-2.481 2.435zM15.618 18.434c-1.382 0-2.481-1.079-2.481-2.435s1.098-2.435 2.481-2.435c1.382 0 2.481 1.079 2.481 2.435s-1.099 2.435-2.481 2.435zM22.705 18.434c-1.382 0-2.481-1.079-2.481-2.435s1.099-2.435 2.481-2.435c1.382 0 2.481 1.079 2.481 2.435s-1.099 2.435-2.481 2.435z"></path>
    </symbol>
    <symbol id="iconCommunity" viewBox="0 0 32 32">
        <path fill="#f4f6f8" style="fill: var(--color1, #f4f6f8)" d="M25.284 24.099c0 2.618-4.245 4.741-9.481 4.741s-9.481-2.122-9.481-4.741c0-2.618 4.245-4.741 9.481-4.741s9.481 2.122 9.481 4.741z"></path>
        <path fill="#f4f6f8" style="fill: var(--color1, #f4f6f8)" d="M22.123 9.877c0 3.491-2.83 6.321-6.321 6.321s-6.321-2.83-6.321-6.321c0-3.491 2.83-6.321 6.321-6.321s6.321 2.83 6.321 6.321z"></path>
        <path fill="#f4f6f8" style="fill: var(--color1, #f4f6f8)" d="M8.296 5.876c-1.653 0.956-2.765 2.744-2.765 4.791s1.112 3.835 2.765 4.791c-0.814 0.471-1.758 0.74-2.765 0.74-3.055 0-5.531-2.476-5.531-5.531s2.476-5.531 5.531-5.531c1.007 0 1.952 0.269 2.765 0.74z"></path>
        <path fill="#f4f6f8" style="fill: var(--color1, #f4f6f8)" d="M23.309 5.876c1.653 0.956 2.765 2.744 2.765 4.791s-1.112 3.835-2.765 4.791c0.814 0.471 1.758 0.74 2.765 0.74 3.055 0 5.531-2.476 5.531-5.531s-2.476-5.531-5.531-5.531c-1.007 0-1.952 0.269-2.765 0.74z"></path>
        <path fill="#f4f6f8" style="fill: var(--color1, #f4f6f8)" d="M24.494 19.358c0 0 0 0 0 0 2.182 0 3.951 1.769 3.951 3.951 0 0.889-0.294 1.71-0.79 2.37 2.182-0 3.95-1.769 3.95-3.951s-1.769-3.951-3.951-3.951c-1.292 0-2.44 0.621-3.161 1.58z"></path>
        <path fill="#f4f6f8" style="fill: var(--color1, #f4f6f8)" d="M7.111 19.358c-0 0-0 0-0 0-2.182 0-3.951 1.769-3.951 3.951 0 0.889 0.294 1.71 0.79 2.37-2.182-0-3.95-1.769-3.95-3.951s1.769-3.951 3.951-3.951c1.292 0 2.44 0.621 3.161 1.58z"></path>
        <path fill="#ff6934" style="fill: var(--color2, #ff6934); stroke: var(--color3, #262d34)" stroke="#262d34" stroke-linejoin="miter" stroke-linecap="butt" stroke-miterlimit="4" stroke-width="1.5802" d="M30.815 5.926c0 2.618-2.122 4.741-4.741 4.741s-4.741-2.123-4.741-4.741c0-2.618 2.122-4.741 4.741-4.741s4.741 2.123 4.741 4.741z"></path>
    </symbol>
    <symbol id="iconNotification" viewBox="0 0 31 32">
        <path fill="#f4f6f8" style="fill: var(--color1, #f4f6f8)" d="M27.935 20.665h-0.64c1.762 0 3.18 1.392 3.18 3.109v0.624c0 0.692-0.569 1.243-1.271 1.243h-27.935c-0.702 0-1.271-0.557-1.271-1.243v-0.624c0-1.716 1.424-3.109 3.18-3.109h-0.64c0.698 0 1.268-0.558 1.268-1.245v-7.463c0-6.186 5.117-11.195 11.429-11.195 6.313 0 11.429 5.012 11.429 11.195v7.463c0 0.692 0.568 1.245 1.268 1.245h-0zM10.793 26.884h8.889c0 2.404-1.99 4.354-4.444 4.354s-4.444-1.949-4.444-4.354v0z"></path>
        <path fill="#ff6934" style="fill: var(--color2, #ff6934); stroke: var(--color3, #262d34)" stroke="#262d34" stroke-linejoin="miter" stroke-linecap="butt" stroke-miterlimit="4" stroke-width="1.5238" d="M29.714 6.095c0 2.525-2.047 4.571-4.571 4.571s-4.571-2.047-4.571-4.571c0-2.525 2.047-4.571 4.571-4.571s4.571 2.047 4.571 4.571z"></path>
    </symbol>
    <symbol id="iconHome" viewBox="0 0 32 32">
        <path fill="#fff" style="fill: var(--color4, #fff)" d="M30.568 12.278l-13.375-11.347c-0.381-0.345-0.877-0.537-1.391-0.537s-1.010 0.191-1.391 0.537l-13.374 11.347c-0.327 0.296-0.588 0.657-0.766 1.060s-0.271 0.839-0.271 1.279v16.333c0 0.278 0.111 0.545 0.307 0.742s0.464 0.308 0.742 0.308h8.432c0.873 0 1.58-0.708 1.58-1.58v-6.321c0-0.891 0.872-1.614 1.764-1.614h5.952c0.892 0 1.765 0.723 1.765 1.614v6.321c0 0.873 0.708 1.58 1.58 1.58h8.432c0.278 0 0.545-0.111 0.742-0.308s0.307-0.464 0.307-0.742v-16.333c0-0.441-0.092-0.876-0.271-1.279s-0.44-0.764-0.766-1.060z"></path>
    </symbol>
    <symbol id="iconArrowDown" viewBox="0 0 41 32">
        <path fill="#f4f6f8" style="fill: var(--color1, #f4f6f8)" d="M36.848 1.939h-31.030c-3.196 0-5.021 3.649-3.103 6.206l15.515 20.687c1.552 2.069 4.655 2.069 6.206 0l15.515-20.687c1.918-2.557 0.093-6.206-3.103-6.206z"></path>
    </symbol>
    <symbol id="iconSearch" viewBox="0 0 31 32">
        <path fill="none" stroke="#858ead" style="stroke: var(--color2, #858ead)" stroke-linejoin="miter" stroke-linecap="butt" stroke-miterlimit="4" stroke-width="3.0476" d="M26.286 14.095c0 6.733-5.458 12.19-12.191 12.19s-12.191-5.458-12.191-12.191c0-6.733 5.458-12.191 12.191-12.191s12.191 5.458 12.191 12.191z"></path>
        <path fill="none" stroke="#858ead" style="stroke: var(--color2, #858ead)" stroke-linejoin="miter" stroke-linecap="round" stroke-miterlimit="4" stroke-width="3.0476" d="M22.476 24l6.095 6.095"></path>
    </symbol>
</defs>
</svg>
