<svg aria-hidden="true" style="position: absolute; width: 0; height: 0; overflow: hidden;" version="1.1" xmlns="http://www.w3.org/2000/svg" xmlns:xlink="http://www.w3.org/1999/xlink">
<defs>
<symbol id="icon1" viewBox="0 0 32 32">
<path fill="#0ecc8d" style="fill: var(--color1, #0ecc8d)" d="M14.657 2.076c0.63-0.974 2.056-0.974 2.686 0l1.412 2.181c0.412 0.636 1.212 0.896 1.919 0.624l2.424-0.935c1.083-0.418 2.236 0.42 2.173 1.579l-0.14 2.594c-0.041 0.756 0.454 1.438 1.186 1.632l2.511 0.668c1.121 0.299 1.562 1.654 0.83 2.555l-1.638 2.016c-0.478 0.588-0.478 1.43 0 2.018l1.638 2.016c0.732 0.901 0.291 2.256-0.83 2.555l-2.511 0.668c-0.732 0.195-1.227 0.876-1.186 1.632l0.14 2.594c0.063 1.159-1.091 1.997-2.173 1.579l-2.424-0.935c-0.707-0.273-1.508-0.012-1.919 0.624l-1.412 2.181c-0.63 0.974-2.056 0.974-2.686 0l-1.412-2.181c-0.412-0.636-1.212-0.896-1.919-0.624l-2.424 0.935c-1.083 0.418-2.236-0.42-2.173-1.579l0.14-2.594c0.041-0.756-0.454-1.437-1.186-1.632l-2.511-0.668c-1.121-0.299-1.562-1.654-0.83-2.555l1.638-2.016c0.478-0.588 0.478-1.43 0-2.018l-1.638-2.016c-0.732-0.901-0.291-2.256 0.83-2.555l2.511-0.668c0.732-0.195 1.227-0.876 1.186-1.632l-0.14-2.594c-0.063-1.159 1.091-1.997 2.173-1.579l2.424 0.935c0.707 0.273 1.508 0.012 1.919-0.624l1.412-2.181z"></path>
<path fill="#fff" style="fill: var(--color2, #fff)" d="M7.139 19.2v-6.259h1.45l1.632 3.11 0.614 1.382h0.038c-0.026-0.333-0.061-0.704-0.106-1.114s-0.067-0.8-0.067-1.171v-2.208h1.344v6.259h-1.45l-1.632-3.12-0.614-1.363h-0.038c0.032 0.346 0.067 0.717 0.106 1.114 0.045 0.397 0.067 0.781 0.067 1.152v2.218h-1.344zM15.54 19.315c-0.454 0-0.864-0.099-1.229-0.298s-0.653-0.483-0.864-0.854c-0.211-0.371-0.317-0.819-0.317-1.344 0-0.518 0.106-0.963 0.317-1.334 0.218-0.371 0.499-0.656 0.845-0.854 0.346-0.205 0.707-0.307 1.085-0.307 0.454 0 0.829 0.102 1.123 0.307 0.301 0.198 0.525 0.47 0.672 0.816 0.154 0.339 0.23 0.726 0.23 1.162 0 0.122-0.006 0.243-0.019 0.365-0.013 0.115-0.026 0.202-0.038 0.259h-2.851c0.064 0.346 0.208 0.602 0.432 0.768 0.224 0.16 0.493 0.24 0.806 0.24 0.339 0 0.682-0.106 1.027-0.317l0.47 0.854c-0.243 0.166-0.515 0.298-0.816 0.394s-0.592 0.144-0.874 0.144zM14.484 16.301h1.718c0-0.262-0.064-0.477-0.192-0.643-0.122-0.173-0.323-0.259-0.605-0.259-0.218 0-0.413 0.077-0.586 0.23-0.173 0.147-0.285 0.371-0.336 0.672zM19.118 19.2l-1.19-4.762h1.402l0.461 2.208c0.038 0.237 0.074 0.47 0.106 0.701s0.067 0.467 0.106 0.71h0.038c0.045-0.243 0.086-0.483 0.125-0.72 0.045-0.237 0.096-0.467 0.154-0.691l0.528-2.208h1.219l0.538 2.208c0.058 0.237 0.109 0.47 0.154 0.701 0.051 0.23 0.099 0.467 0.144 0.71h0.038c0.045-0.243 0.080-0.48 0.106-0.71 0.032-0.23 0.070-0.464 0.115-0.701l0.451-2.208h1.306l-1.142 4.762h-1.651l-0.432-1.901c-0.045-0.224-0.090-0.448-0.134-0.672-0.038-0.224-0.080-0.464-0.125-0.72h-0.038c-0.045 0.256-0.086 0.496-0.125 0.72-0.032 0.224-0.070 0.448-0.115 0.672l-0.422 1.901h-1.613z"></path>
</symbol>
    <symbol id="icon2" viewBox="0 0 32 32">
        <path fill="#924dbf" style="fill: var(--color1, #924dbf)" d="M20.8 8c0-3.535-2.866-6.4-6.4-6.4s-6.4 2.865-6.4 6.4c0 3.535 2.866 6.4 6.4 6.4s6.4-2.865 6.4-6.4z"></path>
        <path fill="#924dbf" style="fill: var(--color1, #924dbf)" d="M19.2 14.4c-1.223 0.925-3.157 1.6-4.8 1.6-1.674 0-3.565-0.642-4.8-1.6-7.837 1.886-8.143 8.375-7.986 14.366 0.026 0.991 0.582 1.634 1.586 1.634l14.4-0v-4.8c0-1.63 0.491-3.2 3.2-3.2l5.6-0c0-4.8-3.2-8-7.2-8z"></path>
        <path fill="none" stroke="#924dbf" style="stroke: var(--color1, #924dbf)" stroke-linejoin="round" stroke-linecap="round" stroke-miterlimit="4" stroke-width="1.6" d="M20.8 27.2h9.6M30.4 27.2l-2.4-2.4M30.4 27.2l-2.4 2.4"></path>
    </symbol>
    <symbol id="icon3" viewBox="0 0 32 32">
        <path fill="#eea956" style="fill: var(--color2, #eea956)" d="M10.754 23.12l3.646 3.904c0.362 0.377 1.024 0.103 1.024-0.411v-3.459l2.894-0c1.579 0 2.861-1.335 2.861-2.978l0-12.398c0-1.643-1.283-2.978-2.861-2.978h-15.457c-1.579 0-2.861 1.335-2.861 2.978v12.364c0 1.643 1.283 2.978 2.861 2.978h7.893zM6.577 11.887l2.565-0.205 0.987-2.499c0.197-0.479 0.822-0.479 0.987 0l0.987 2.499 2.565 0.205c0.493 0.034 0.691 0.65 0.296 0.993l-1.973 1.746 0.625 2.602c0.131 0.479-0.395 0.89-0.822 0.616l-2.204-1.404-2.204 1.404c-0.428 0.274-0.921-0.137-0.822-0.616l0.625-2.602-1.973-1.746c-0.329-0.308-0.132-0.958 0.362-0.993zM24.896 9.764c-0.724 0-1.315-0.616-1.315-1.369s0.592-1.369 1.315-1.369h5.788c0.724 0 1.315 0.616 1.315 1.369s-0.592 1.369-1.315 1.369h-5.788zM23.614 13.838c0-0.753 0.592-1.369 1.316-1.369h4.276c0.724 0 1.315 0.616 1.315 1.369s-0.592 1.369-1.315 1.369h-4.308c-0.724 0-1.283-0.616-1.283-1.369zM23.614 19.281c0-0.753 0.592-1.369 1.316-1.369h2.598c0.724 0 1.315 0.616 1.315 1.369s-0.592 1.369-1.315 1.369h-2.631c-0.724 0-1.283-0.616-1.283-1.369z"></path>
    </symbol>
    <symbol id="exit-arrow" viewBox="0 0 37 32">
        <path fill="none" stroke="#f7f7f7" style="stroke: var(--color1, #f7f7f7)" stroke-linejoin="round" stroke-linecap="round" stroke-miterlimit="4" stroke-width="5.3333" d="M2.667 16h32M34.667 16l-12.444-13.333M34.667 16l-12.444 13.333"></path>
    </symbol>
    <symbol id="icon5" viewBox="0 0 32 32">
        <path fill="#3ed6a4" style="fill: var(--color1, #3ed6a4)" d="M17.112 32c-8.994 0-16.312-7.177-16.312-16s7.317-16 16.312-16c4.902 0 9.499 2.133 12.612 5.853 0.605 0.722 0.736 1.554 0 2.147-0.519 0.418-1.434 0.347-1.724 0-2.456-2.934-6.4-5.6-10.889-5.6-7.093 0-13.911 6.643-13.911 13.6s6.819 13.6 13.911 13.6c4.455 0 9.317-3.196 11.689-6.903 0.506-0.791 1.177-0.789 1.592-0.533 0.866 0.533 1.050 1.541 0.544 2.332-3.007 4.699-8.175 7.504-13.824 7.504z"></path>
        <path fill="#3ed6a4" style="fill: var(--color1, #3ed6a4)" d="M13.6 8l11.2 7.549-11.2 6.851v-14.4z"></path>
    </symbol>
    <symbol id="iconLike" viewBox="0 0 32 32">
        <path d="M6.856 2.058c3.116-0.955 6.556-0.392 9.147 1.459 2.451-1.8 6.017-2.408 9.13-1.459 5.924 1.813 8.050 7.94 6.244 13.3-2.813 8.497-15.374 15.041-15.374 15.041s-12.468-6.445-15.376-15.041c-1.807-5.361 0.305-11.487 6.229-13.3zM22.012 6.837c-0.642-0.164-1.296 0.223-1.46 0.865s0.223 1.296 0.865 1.46c2.212 0.566 3.524 2.052 3.675 3.531 0.068 0.659 0.657 1.139 1.316 1.071s1.139-0.657 1.071-1.316c-0.282-2.752-2.576-4.872-5.468-5.612z"></path>
    </symbol>
    <symbol id="iconMessage" viewBox="0 0 31 32">
        <path fill="#f4f6f8" style="fill: var(--color1, #f4f6f8)" d="M30.82 14.712c-0.284-4.21-2.41-8.142-5.776-10.751s-7.761-3.688-12.014-2.992c-7.584 1.288-13.147 8.176-12.616 15.761 0.248 3.653 1.807 7.028 4.43 9.603-0.673 0.974-1.276 1.601-2.87 2.853-0.319 0.244-0.461 0.626-0.354 1.009 0.071 0.383 0.354 0.696 0.709 0.8 0.531 0.174 1.311 0.244 2.197 0.244 1.878 0 4.252-0.418 6.095-1.357 2.445 0.835 5.068 1.044 7.655 0.591 7.584-1.322 13.077-8.246 12.545-15.761l0 0zM8.53 18.434c-1.382 0-2.481-1.079-2.481-2.435s1.098-2.435 2.481-2.435c1.382 0 2.481 1.079 2.481 2.435s-1.098 2.435-2.481 2.435zM15.618 18.434c-1.382 0-2.481-1.079-2.481-2.435s1.098-2.435 2.481-2.435c1.382 0 2.481 1.079 2.481 2.435s-1.099 2.435-2.481 2.435zM22.705 18.434c-1.382 0-2.481-1.079-2.481-2.435s1.099-2.435 2.481-2.435c1.382 0 2.481 1.079 2.481 2.435s-1.099 2.435-2.481 2.435z"></path>
    </symbol>
    <symbol id="iconCommunity" viewBox="0 0 32 32">
        <path fill="#f4f6f8" style="fill: var(--color1, #f4f6f8)" d="M25.284 24.099c0 2.618-4.245 4.741-9.481 4.741s-9.481-2.122-9.481-4.741c0-2.618 4.245-4.741 9.481-4.741s9.481 2.122 9.481 4.741z"></path>
        <path fill="#f4f6f8" style="fill: var(--color1, #f4f6f8)" d="M22.123 9.877c0 3.491-2.83 6.321-6.321 6.321s-6.321-2.83-6.321-6.321c0-3.491 2.83-6.321 6.321-6.321s6.321 2.83 6.321 6.321z"></path>
        <path fill="#f4f6f8" style="fill: var(--color1, #f4f6f8)" d="M8.296 5.876c-1.653 0.956-2.765 2.744-2.765 4.791s1.112 3.835 2.765 4.791c-0.814 0.471-1.758 0.74-2.765 0.74-3.055 0-5.531-2.476-5.531-5.531s2.476-5.531 5.531-5.531c1.007 0 1.952 0.269 2.765 0.74z"></path>
        <path fill="#f4f6f8" style="fill: var(--color1, #f4f6f8)" d="M23.309 5.876c1.653 0.956 2.765 2.744 2.765 4.791s-1.112 3.835-2.765 4.791c0.814 0.471 1.758 0.74 2.765 0.74 3.055 0 5.531-2.476 5.531-5.531s-2.476-5.531-5.531-5.531c-1.007 0-1.952 0.269-2.765 0.74z"></path>
        <path fill="#f4f6f8" style="fill: var(--color1, #f4f6f8)" d="M24.494 19.358c0 0 0 0 0 0 2.182 0 3.951 1.769 3.951 3.951 0 0.889-0.294 1.71-0.79 2.37 2.182-0 3.95-1.769 3.95-3.951s-1.769-3.951-3.951-3.951c-1.292 0-2.44 0.621-3.161 1.58z"></path>
        <path fill="#f4f6f8" style="fill: var(--color1, #f4f6f8)" d="M7.111 19.358c-0 0-0 0-0 0-2.182 0-3.951 1.769-3.951 3.951 0 0.889 0.294 1.71 0.79 2.37-2.182-0-3.95-1.769-3.95-3.951s1.769-3.951 3.951-3.951c1.292 0 2.44 0.621 3.161 1.58z"></path>
        <path fill="#ff6934" style="fill: var(--color2, #ff6934); stroke: var(--color3, #262d34)" stroke="#262d34" stroke-linejoin="miter" stroke-linecap="butt" stroke-miterlimit="4" stroke-width="1.5802" d="M30.815 5.926c0 2.618-2.122 4.741-4.741 4.741s-4.741-2.123-4.741-4.741c0-2.618 2.122-4.741 4.741-4.741s4.741 2.123 4.741 4.741z"></path>
    </symbol>
    <symbol id="iconNotification" viewBox="0 0 31 32">
        <path fill="#f4f6f8" style="fill: var(--color1, #f4f6f8)" d="M27.935 20.665h-0.64c1.762 0 3.18 1.392 3.18 3.109v0.624c0 0.692-0.569 1.243-1.271 1.243h-27.935c-0.702 0-1.271-0.557-1.271-1.243v-0.624c0-1.716 1.424-3.109 3.18-3.109h-0.64c0.698 0 1.268-0.558 1.268-1.245v-7.463c0-6.186 5.117-11.195 11.429-11.195 6.313 0 11.429 5.012 11.429 11.195v7.463c0 0.692 0.568 1.245 1.268 1.245h-0zM10.793 26.884h8.889c0 2.404-1.99 4.354-4.444 4.354s-4.444-1.949-4.444-4.354v0z"></path>
        <path fill="#ff6934" style="fill: var(--color2, #ff6934); stroke: var(--color3, #262d34)" stroke="#262d34" stroke-linejoin="miter" stroke-linecap="butt" stroke-miterlimit="4" stroke-width="1.5238" d="M29.714 6.095c0 2.525-2.047 4.571-4.571 4.571s-4.571-2.047-4.571-4.571c0-2.525 2.047-4.571 4.571-4.571s4.571 2.047 4.571 4.571z"></path>
    </symbol>
    <symbol id="iconHome" viewBox="0 0 32 32">
        <path fill="#fff" style="fill: var(--color4, #fff)" d="M30.568 12.278l-13.375-11.347c-0.381-0.345-0.877-0.537-1.391-0.537s-1.010 0.191-1.391 0.537l-13.374 11.347c-0.327 0.296-0.588 0.657-0.766 1.060s-0.271 0.839-0.271 1.279v16.333c0 0.278 0.111 0.545 0.307 0.742s0.464 0.308 0.742 0.308h8.432c0.873 0 1.58-0.708 1.58-1.58v-6.321c0-0.891 0.872-1.614 1.764-1.614h5.952c0.892 0 1.765 0.723 1.765 1.614v6.321c0 0.873 0.708 1.58 1.58 1.58h8.432c0.278 0 0.545-0.111 0.742-0.308s0.307-0.464 0.307-0.742v-16.333c0-0.441-0.092-0.876-0.271-1.279s-0.44-0.764-0.766-1.060z"></path>
    </symbol>
    <symbol id="iconArrowDown" viewBox="0 0 41 32">
        <path fill="#f4f6f8" style="fill: var(--color1, #f4f6f8)" d="M36.848 1.939h-31.030c-3.196 0-5.021 3.649-3.103 6.206l15.515 20.687c1.552 2.069 4.655 2.069 6.206 0l15.515-20.687c1.918-2.557 0.093-6.206-3.103-6.206z"></path>
    </symbol>
    <symbol id="iconSearch" viewBox="0 0 31 32">
        <path fill="none" stroke="#858ead" style="stroke: var(--color2, #858ead)" stroke-linejoin="miter" stroke-linecap="butt" stroke-miterlimit="4" stroke-width="3.0476" d="M26.286 14.095c0 6.733-5.458 12.19-12.191 12.19s-12.191-5.458-12.191-12.191c0-6.733 5.458-12.191 12.191-12.191s12.191 5.458 12.191 12.191z"></path>
        <path fill="none" stroke="#858ead" style="stroke: var(--color2, #858ead)" stroke-linejoin="miter" stroke-linecap="round" stroke-miterlimit="4" stroke-width="3.0476" d="M22.476 24l6.095 6.095"></path>
    </symbol>
    <symbol id="NavExitIcon" viewBox="0 0 32 32">
        <path d="M3.683 31.314c-0.95 0-1.763-0.338-2.438-1.014s-1.014-1.489-1.015-2.44v-6.908h3.454v6.908h24.178v-24.178h-24.178v6.908h-3.454v-6.908c0-0.95 0.339-1.763 1.015-2.438s1.49-1.014 2.439-1.015h24.178c0.95 0 1.763 0.339 2.44 1.015s1.015 1.49 1.014 2.438v24.178c0 0.95-0.338 1.763-1.014 2.44s-1.489 1.015-2.44 1.014h-24.178zM13.181 24.406l-2.418-2.504 4.404-4.404h-14.938v-3.454h14.938l-4.404-4.404 2.418-2.504 8.635 8.635-8.635 8.635z"></path>
    </symbol>
    <symbol id="NavThemeIcon" viewBox="0 0 32 32">
        <path d="M16.032 32c-4.483 0-8.276-1.552-11.378-4.655s-4.654-6.896-4.655-11.378c0-4.097 1.336-7.653 4.008-10.667s6.086-4.773 10.243-5.277c0.386-0.059 0.727-0.007 1.024 0.157s0.534 0.379 0.712 0.645c0.178 0.266 0.275 0.578 0.29 0.935s-0.096 0.699-0.335 1.024c-0.505 0.772-0.884 1.588-1.136 2.449s-0.379 1.767-0.378 2.717c0 2.672 0.935 4.943 2.806 6.814s4.142 2.806 6.814 2.806c0.92 0 1.834-0.134 2.74-0.401s1.715-0.638 2.426-1.113c0.327-0.208 0.661-0.304 1.003-0.289s0.646 0.097 0.912 0.244c0.297 0.148 0.527 0.371 0.691 0.668s0.216 0.653 0.155 1.069c-0.416 4.097-2.16 7.497-5.232 10.199s-6.643 4.053-10.711 4.053zM16.032 28.437c2.613 0 4.958-0.72 7.036-2.161s3.592-3.318 4.543-5.633c-0.594 0.149-1.188 0.267-1.781 0.356s-1.188 0.134-1.781 0.134c-3.652 0-6.762-1.284-9.331-3.853s-3.852-5.678-3.851-9.329c0-0.594 0.045-1.188 0.134-1.781s0.208-1.188 0.356-1.781c-2.316 0.95-4.194 2.464-5.634 4.543s-2.16 4.424-2.159 7.037c0 3.444 1.217 6.383 3.652 8.818s5.374 3.652 8.818 3.652z"></path>
    </symbol>
    <symbol id="NavSettingsIcon" viewBox="0 0 32 32">
        <path d="M11.987 31.848l-0.619-4.974c-0.335-0.13-0.651-0.285-0.947-0.466s-0.586-0.376-0.871-0.583l-4.601 1.943-4.253-7.383 3.982-3.031c-0.026-0.181-0.039-0.356-0.039-0.524v-1.049c0-0.169 0.013-0.344 0.039-0.525l-3.982-3.031 4.253-7.383 4.601 1.943c0.284-0.207 0.58-0.402 0.889-0.583s0.619-0.337 0.928-0.466l0.619-4.974h8.506l0.619 4.974c0.335 0.13 0.651 0.285 0.948 0.466s0.587 0.376 0.869 0.583l4.601-1.943 4.253 7.383-3.982 3.031c0.026 0.181 0.039 0.356 0.039 0.525v1.048c0 0.169-0.026 0.344-0.077 0.525l3.982 3.031-4.253 7.383-4.562-1.943c-0.284 0.207-0.58 0.402-0.889 0.583s-0.619 0.337-0.928 0.466l-0.619 4.974h-8.506zM16.317 21.745c1.495 0 2.771-0.531 3.828-1.593s1.585-2.344 1.585-3.847-0.528-2.785-1.585-3.847c-1.057-1.062-2.333-1.593-3.828-1.593-1.521 0-2.803 0.531-3.848 1.593s-1.566 2.344-1.565 3.847 0.523 2.785 1.567 3.847c1.043 1.062 2.325 1.593 3.846 1.593z"></path>
    </symbol>
    <symbol id="CalendarIcon" viewBox="0 0 32 32">
        <path fill="#fff" style="fill: var(--color1, #fff)" d="M8.889 3.2h14.222v-3.2h3.556v3.2h1.778c0.943 0 1.847 0.337 2.514 0.937s1.041 1.414 1.041 2.263v22.4c0 0.849-0.375 1.663-1.041 2.263s-1.571 0.937-2.514 0.937h-24.889c-0.943 0-1.847-0.337-2.514-0.937s-1.041-1.414-1.041-2.263v-22.4c0-0.849 0.375-1.663 1.041-2.263s1.571-0.937 2.514-0.937h1.778v-3.2h3.556v3.2zM3.556 9.6v19.2h24.889v-19.2h-24.889zM7.111 14.4h3.556v3.2h-3.556v-3.2zM14.222 14.4h3.556v3.2h-3.556v-3.2zM21.333 14.4h3.556v3.2h-3.556v-3.2zM21.333 20.8h3.556v3.2h-3.556v-3.2zM14.222 20.8h3.556v3.2h-3.556v-3.2zM7.111 20.8h3.556v3.2h-3.556v-3.2z"></path>
    </symbol>
    <symbol id="closeBtnIcon" viewBox="0 0 32 32">
        <path d="M16.215 19.57l-11.741 11.74c-0.439 0.439-0.998 0.659-1.677 0.659s-1.238-0.22-1.677-0.659c-0.439-0.439-0.659-0.998-0.659-1.677s0.22-1.238 0.659-1.677l11.741-11.74-11.741-11.741c-0.439-0.439-0.659-0.998-0.659-1.677s0.22-1.238 0.659-1.677c0.439-0.439 0.998-0.659 1.677-0.659s1.238 0.22 1.677 0.659l11.741 11.741 11.74-11.741c0.439-0.439 0.998-0.659 1.677-0.659s1.238 0.22 1.677 0.659c0.439 0.439 0.659 0.998 0.659 1.677s-0.22 1.238-0.659 1.677l-11.74 11.741 11.74 11.74c0.439 0.439 0.659 0.998 0.659 1.677s-0.22 1.238-0.659 1.677c-0.439 0.439-0.998 0.659-1.677 0.659s-1.238-0.22-1.677-0.659l-11.74-11.74z"></path>
    </symbol>
    <symbol id="starIcon" viewBox="0 0 24 24">
        <path class="star-bg" d="M12 2l3.09 6.26L22 9.27l-5 4.87L18.18 22 12 18.27 5.82 22 7 14.14l-5-4.87 6.91-1.01L12 2z"/>
        <path class="star-outline" d="M12 2l3.09 6.26L22 9.27l-5 4.87L18.18 22 12 18.27 5.82 22 7 14.14l-5-4.87 6.91-1.01L12 2z"/>
    </symbol>
    <symbol id="commentIcon" viewBox="0 0 30 32">
        <path d="M15.238 4.571c-2.313 0-4.476 0.414-6.488 1.241s-3.611 1.943-4.796 3.348c-1.185 1.405-1.777 2.923-1.777 4.554 0 1.333 0.405 2.604 1.216 3.813s1.953 2.253 3.427 3.134l1.48 0.893-0.459 1.714c-0.272 1.083-0.669 2.107-1.19 3.072 1.723-0.75 3.282-1.768 4.677-3.054l0.731-0.679 0.969 0.107c0.782 0.095 1.519 0.143 2.211 0.143 2.313 0 4.476-0.414 6.488-1.241s3.611-1.943 4.796-3.348c1.185-1.405 1.777-2.923 1.777-4.554s-0.592-3.149-1.777-4.554c-1.185-1.405-2.783-2.521-4.796-3.348s-4.175-1.241-6.488-1.241zM30.476 13.714c0 2.071-0.68 3.985-2.041 5.741s-3.209 3.143-5.544 4.161c-2.336 1.018-4.887 1.527-7.653 1.527-0.794 0-1.616-0.048-2.466-0.143-2.245 2.083-4.853 3.524-7.823 4.321-0.556 0.167-1.202 0.298-1.939 0.393h-0.085c-0.17 0-0.323-0.062-0.459-0.187s-0.227-0.289-0.272-0.491v-0.018c-0.034-0.048-0.037-0.119-0.009-0.214s0.040-0.155 0.034-0.178c-0.006-0.024 0.020-0.080 0.077-0.17l0.102-0.161 0.119-0.152 0.136-0.161c0.079-0.095 0.255-0.301 0.527-0.616s0.468-0.542 0.587-0.679c0.119-0.137 0.295-0.372 0.527-0.705s0.417-0.637 0.553-0.911 0.289-0.625 0.459-1.054c0.17-0.428 0.317-0.881 0.442-1.357-1.78-1.059-3.183-2.369-4.209-3.929s-1.539-3.232-1.539-5.018c0-2.071 0.68-3.985 2.041-5.741s3.209-3.143 5.544-4.161c2.336-1.018 4.887-1.527 7.653-1.527s5.317 0.509 7.653 1.527c2.336 1.018 4.184 2.405 5.544 4.161s2.041 3.67 2.041 5.741z"></path>
    </symbol>
    <symbol id="changeProfileIcon" viewBox="0 0 37 32">
        <path d="M1.682 32h10.091c0.446 0 0.874-0.186 1.189-0.518s0.493-0.782 0.493-1.251c0-0.469-0.177-0.919-0.493-1.251s-0.743-0.518-1.189-0.518h-8.29c0.408-2.946 1.81-5.639 3.949-7.588s4.874-3.023 7.704-3.027c1.98 0.018 3.904-0.693 5.438-2.011s2.582-3.158 2.961-5.203 0.067-4.164-0.883-5.992c-0.95-1.828-2.479-3.248-4.32-4.015s-3.88-0.832-5.762-0.184-3.489 1.968-4.543 3.732c-1.054 1.764-1.488 3.86-1.227 5.925s1.201 3.969 2.656 5.382c-2.792 1.191-5.182 3.231-6.867 5.858s-2.586 5.723-2.59 8.892c0 0.469 0.177 0.919 0.493 1.251s0.743 0.518 1.189 0.518zM15.136 3.694c0.998 0 1.973 0.311 2.803 0.894s1.477 1.412 1.858 2.382c0.382 0.97 0.482 2.037 0.287 3.066s-0.675 1.975-1.381 2.717c-0.706 0.742-1.605 1.248-2.583 1.453s-1.993 0.1-2.915-0.302c-0.922-0.402-1.71-1.082-2.264-1.955s-0.85-1.899-0.85-2.949c0-1.408 0.532-2.758 1.478-3.753s2.23-1.554 3.568-1.554zM32.303 11.289c-0.315-0.332-0.743-0.518-1.189-0.518s-0.874 0.186-1.189 0.518l-10.512 11.057c-0.184 0.195-0.322 0.431-0.405 0.692l-2.102 6.634c-0.084 0.266-0.107 0.549-0.067 0.826s0.142 0.54 0.298 0.767c0.156 0.227 0.36 0.413 0.598 0.54s0.5 0.195 0.766 0.195c0.181-0 0.36-0.031 0.531-0.090l6.307-2.212c0.248-0.087 0.473-0.234 0.658-0.428l10.512-11.057c0.315-0.332 0.492-0.782 0.492-1.251s-0.177-0.919-0.492-1.251l-4.205-4.423zM23.894 26.473l-2.74 0.961 0.913-2.882 9.046-9.511 1.827 1.921-9.047 9.511z"></path>
    </symbol>
    <symbol id="paperClipIcon" viewBox="0 0 28 32">
        <path fill="#f4f6f8" style="fill: var(--color1, #f4f6f8)" d="M24.653 17.248l-9.825 9.841c-1.288 1.145-2.965 1.754-4.687 1.703s-3.36-0.758-4.579-1.976c-1.218-1.218-1.925-2.856-1.976-4.579s0.559-3.399 1.703-4.687l12.718-12.718c0.759-0.721 1.767-1.123 2.814-1.123s2.055 0.402 2.814 1.123c0.74 0.75 1.155 1.761 1.155 2.814s-0.415 2.064-1.155 2.814l-10.969 10.953c-0.109 0.117-0.239 0.211-0.384 0.278s-0.302 0.104-0.461 0.11c-0.322 0.012-0.636-0.105-0.872-0.324-0.117-0.109-0.211-0.239-0.278-0.384s-0.104-0.302-0.11-0.461c-0.012-0.322 0.105-0.636 0.324-0.872l8.155-8.14c0.299-0.299 0.468-0.705 0.468-1.129s-0.168-0.829-0.468-1.129c-0.299-0.299-0.705-0.468-1.129-0.468s-0.829 0.168-1.129 0.468l-8.155 8.171c-0.408 0.405-0.732 0.887-0.953 1.417s-0.335 1.1-0.335 1.675c0 0.575 0.114 1.144 0.335 1.675s0.545 1.012 0.953 1.417c0.834 0.794 1.941 1.237 3.092 1.237s2.258-0.443 3.092-1.237l10.953-10.969c1.264-1.356 1.951-3.15 1.919-5.003s-0.784-3.622-2.094-4.932c-1.311-1.311-3.079-2.062-4.932-2.094s-3.647 0.655-5.003 1.919l-12.718 12.718c-1.715 1.899-2.631 4.387-2.557 6.945s1.132 4.989 2.954 6.786 4.267 2.822 6.826 2.861c2.559 0.039 5.034-0.911 6.91-2.651l9.841-9.825c0.148-0.148 0.266-0.324 0.346-0.518s0.121-0.401 0.121-0.611-0.041-0.417-0.121-0.611c-0.080-0.194-0.198-0.37-0.346-0.518s-0.324-0.266-0.518-0.346c-0.194-0.080-0.401-0.122-0.611-0.122s-0.417 0.041-0.611 0.122c-0.194 0.080-0.37 0.198-0.518 0.346v0.032z"></path>
    </symbol>
    <symbol id="sendIcon" viewBox="0 0 35 32">
        <path fill="none" stroke="#fff" style="stroke: var(--color2, #fff)" stroke-linejoin="round" stroke-linecap="butt" stroke-miterlimit="4" stroke-width="2.0317" d="M32.889 1.524l-31.365 10.772 16.508 2.949 4.131 15.232 10.726-28.952z"></path>
        <path fill="none" stroke="#fff" style="stroke: var(--color2, #fff)" stroke-linejoin="round" stroke-linecap="round" stroke-miterlimit="4" stroke-width="2.0317" d="M18.039 15.245l4.669-4.31"></path>
    </symbol>
</defs>
</svg>
