<svg width="27" height="23" viewBox="0 0 27 23" fill="none" xmlns="http://www.w3.org/2000/svg">
<path d="M8.599 6.24295C8.599 7.57011 9.11789 9.10182 9.98698 10.3404C10.9736 11.7464 12.2212 12.5208 13.4998 12.5208C14.7784 12.5208 16.026 11.7464 17.0126 10.3403C17.8817 9.10182 18.4006 7.57005 18.4006 6.24295C18.4006 3.54063 16.2022 1.34216 13.4998 1.34216C10.7975 1.34216 8.599 3.54063 8.599 6.24295ZM13.4998 2.19327C15.7328 2.19327 17.5495 4.00999 17.5495 6.24295C17.5495 7.38445 17.0769 8.76716 16.316 9.85153C15.5052 11.007 14.4787 11.6697 13.4998 11.6697C12.521 11.6697 11.4945 11.007 10.6837 9.85153C9.92281 8.76722 9.45011 7.38451 9.45011 6.24295C9.45011 4.00993 11.2668 2.19327 13.4998 2.19327Z" fill="white"/>
<path d="M17.1567 11.5704C16.9943 11.493 16.8008 11.5262 16.6733 11.6533C15.7214 12.6024 14.624 13.1041 13.4995 13.1041C12.3748 13.1041 11.2776 12.6024 10.3264 11.6534C10.199 11.5262 10.0053 11.493 9.84291 11.5704C8.40999 12.2525 7.19721 13.3196 6.33572 14.6564C5.4508 16.0295 4.98303 17.6226 4.98303 19.2634V19.2703C4.98303 19.3903 5.03376 19.5049 5.12267 19.5855C7.4202 21.6692 10.3951 22.8166 13.4994 22.8166C16.6038 22.8166 19.5787 21.6691 21.8761 19.5855C21.9651 19.5049 22.0158 19.3904 22.0158 19.2703V19.2634C22.0158 17.6226 21.5482 16.0295 20.6635 14.6564C19.8022 13.3196 18.5896 12.2525 17.1567 11.5704ZM13.4995 21.9655C10.6704 21.9655 7.95686 20.9429 5.83635 19.0816C5.86943 17.669 6.28778 16.3021 7.05122 15.1174C7.77415 13.9956 8.77171 13.0848 9.94828 12.469C11.0119 13.4425 12.2341 13.9552 13.4995 13.9552C14.7649 13.9552 15.9872 13.4425 17.0514 12.469C18.2278 13.0848 19.2253 13.9956 19.9482 15.1174C20.7114 16.302 21.1297 17.6689 21.1627 19.0816C19.0422 20.9429 16.3286 21.9655 13.4995 21.9655Z" fill="white"/>
<path d="M25.8212 11.8384C25.0706 10.6734 24.0137 9.74341 22.765 9.14899C22.6026 9.07166 22.4089 9.10485 22.2815 9.23189C21.4695 10.0416 20.5345 10.4697 19.5776 10.4697C19.0589 10.4697 18.5459 10.3446 18.0528 10.0979C17.8426 9.99273 17.5871 10.0778 17.4819 10.288C17.3767 10.4982 17.4618 10.7538 17.672 10.859C18.2844 11.1654 18.9256 11.3208 19.5777 11.3208C20.6748 11.3208 21.7341 10.8818 22.658 10.0477C23.6512 10.5753 24.4935 11.349 25.1059 12.2995C25.7552 13.3073 26.1133 14.4694 26.1464 15.6707C25.0953 16.5876 23.8454 17.285 22.5201 17.6926C22.2954 17.7617 22.1693 17.9999 22.2384 18.2245C22.2947 18.4075 22.4631 18.5251 22.645 18.5251C22.6864 18.5251 22.7287 18.519 22.7703 18.5062C24.2744 18.0435 25.6887 17.2373 26.8603 16.1748C26.9492 16.0941 27 15.9797 27 15.8596V15.8536C26.9999 14.4235 26.5923 13.0351 25.8212 11.8384Z" fill="white"/>
<path d="M7.40428 9.94231C7.85423 9.94231 8.3031 9.83257 8.73858 9.61617C8.94903 9.51159 9.03488 9.25615 8.93031 9.0457C8.82574 8.83519 8.57029 8.7494 8.35984 8.85397C8.04312 9.01137 7.72162 9.09115 7.40428 9.09115C6.57921 9.09115 5.71137 8.52862 5.02322 7.54781C4.3736 6.62192 3.97 5.44205 3.97 4.46873C3.97 2.57502 5.51062 1.0344 7.40428 1.0344C8.29805 1.0344 9.1445 1.37609 9.78771 1.9966C9.9568 2.15973 10.2263 2.15502 10.3894 1.98582C10.5526 1.81668 10.5478 1.54728 10.3786 1.38415C9.57596 0.609811 8.51962 0.18335 7.40428 0.18335C5.04126 0.18335 3.1189 2.10577 3.1189 4.46879C3.1189 5.62516 3.57038 6.95895 4.3265 8.03668C5.18867 9.26551 6.28172 9.94231 7.40428 9.94231Z" fill="white"/>
<path d="M3.4631 17.2999C2.51252 16.8901 1.63554 16.3369 0.85366 15.6542C0.886683 14.4563 1.24375 13.2977 1.8915 12.2927C2.50208 11.3452 3.34184 10.5738 4.33191 10.0477C5.25331 10.8796 6.30965 11.3173 7.40378 11.3173C8.06123 11.3173 8.70705 11.1593 9.32325 10.8477C9.53296 10.7416 9.61699 10.4856 9.51095 10.2759C9.4049 10.0661 9.14889 9.98211 8.93912 10.0882C8.44309 10.339 7.92653 10.4662 7.40378 10.4662C6.44991 10.4662 5.51784 10.0394 4.70838 9.23188C4.58094 9.10479 4.38734 9.07159 4.22489 9.14893C2.97921 9.74193 1.92498 10.6696 1.17606 11.8316C0.406659 13.0255 0 14.4105 0 15.837V15.8429C0 15.9629 0.050726 16.0774 0.139638 16.1581C1.02643 16.9624 2.03125 17.6095 3.12612 18.0815C3.18104 18.1051 3.23818 18.1164 3.29441 18.1164C3.45918 18.1164 3.61601 18.0201 3.68541 17.8592C3.7784 17.6433 3.67888 17.3929 3.4631 17.2999Z" fill="white"/>
<path d="M3.96353 17.9161C3.81197 18.2816 4.22068 18.6442 4.56594 18.4487C4.74967 18.3446 4.83166 18.1118 4.74904 17.9162C4.61247 17.5675 4.10345 17.5785 3.96353 17.9161Z" fill="white"/>
<path d="M4.74911 17.9162C4.73889 17.8901 4.75989 17.9418 4.74911 17.9162V17.9162Z" fill="white"/>
<path d="M17.2119 1.99667C17.8551 1.37615 18.7015 1.03446 19.5953 1.03446C21.489 1.03446 23.0296 2.57508 23.0296 4.46879C23.0296 5.44212 22.6261 6.62192 21.9763 7.54787C21.2882 8.52868 20.4203 9.09121 19.5953 9.09121C19.2779 9.09121 18.9564 9.01143 18.6397 8.85403C18.4291 8.7494 18.1737 8.83525 18.0692 9.04576C17.9646 9.25621 18.0504 9.5116 18.2609 9.61623C18.6964 9.83263 19.1453 9.94237 19.5953 9.94237C20.7178 9.94237 21.8109 9.26563 22.673 8.03674C23.4292 6.95901 23.8806 5.62522 23.8806 4.46885C23.8806 2.10583 21.9582 0.183411 19.5953 0.183411C18.4799 0.183411 17.4236 0.609872 16.6209 1.38421C16.4518 1.54734 16.447 1.8168 16.6101 1.98588C16.7732 2.15503 17.0427 2.15985 17.2119 1.99667Z" fill="white"/>
</svg>
