<svg aria-hidden="true" style="position: absolute; width: 0; height: 0; overflow: hidden;" version="1.1" xmlns="http://www.w3.org/2000/svg" xmlns:xlink="http://www.w3.org/1999/xlink">
<defs>
<symbol id="icon1" viewBox="0 0 32 32">
<path fill="#0ecc8d" style="fill: var(--color1, #0ecc8d)" d="M14.657 2.076c0.63-0.974 2.056-0.974 2.686 0l1.412 2.181c0.412 0.636 1.212 0.896 1.919 0.624l2.424-0.935c1.083-0.418 2.236 0.42 2.173 1.579l-0.14 2.594c-0.041 0.756 0.454 1.438 1.186 1.632l2.511 0.668c1.121 0.299 1.562 1.654 0.83 2.555l-1.638 2.016c-0.478 0.588-0.478 1.43 0 2.018l1.638 2.016c0.732 0.901 0.291 2.256-0.83 2.555l-2.511 0.668c-0.732 0.195-1.227 0.876-1.186 1.632l0.14 2.594c0.063 1.159-1.091 1.997-2.173 1.579l-2.424-0.935c-0.707-0.273-1.508-0.012-1.919 0.624l-1.412 2.181c-0.63 0.974-2.056 0.974-2.686 0l-1.412-2.181c-0.412-0.636-1.212-0.896-1.919-0.624l-2.424 0.935c-1.083 0.418-2.236-0.42-2.173-1.579l0.14-2.594c0.041-0.756-0.454-1.437-1.186-1.632l-2.511-0.668c-1.121-0.299-1.562-1.654-0.83-2.555l1.638-2.016c0.478-0.588 0.478-1.43 0-2.018l-1.638-2.016c-0.732-0.901-0.291-2.256 0.83-2.555l2.511-0.668c0.732-0.195 1.227-0.876 1.186-1.632l-0.14-2.594c-0.063-1.159 1.091-1.997 2.173-1.579l2.424 0.935c0.707 0.273 1.508 0.012 1.919-0.624l1.412-2.181z"></path>
<path fill="#fff" style="fill: var(--color2, #fff)" d="M7.139 19.2v-6.259h1.45l1.632 3.11 0.614 1.382h0.038c-0.026-0.333-0.061-0.704-0.106-1.114s-0.067-0.8-0.067-1.171v-2.208h1.344v6.259h-1.45l-1.632-3.12-0.614-1.363h-0.038c0.032 0.346 0.067 0.717 0.106 1.114 0.045 0.397 0.067 0.781 0.067 1.152v2.218h-1.344zM15.54 19.315c-0.454 0-0.864-0.099-1.229-0.298s-0.653-0.483-0.864-0.854c-0.211-0.371-0.317-0.819-0.317-1.344 0-0.518 0.106-0.963 0.317-1.334 0.218-0.371 0.499-0.656 0.845-0.854 0.346-0.205 0.707-0.307 1.085-0.307 0.454 0 0.829 0.102 1.123 0.307 0.301 0.198 0.525 0.47 0.672 0.816 0.154 0.339 0.23 0.726 0.23 1.162 0 0.122-0.006 0.243-0.019 0.365-0.013 0.115-0.026 0.202-0.038 0.259h-2.851c0.064 0.346 0.208 0.602 0.432 0.768 0.224 0.16 0.493 0.24 0.806 0.24 0.339 0 0.682-0.106 1.027-0.317l0.47 0.854c-0.243 0.166-0.515 0.298-0.816 0.394s-0.592 0.144-0.874 0.144zM14.484 16.301h1.718c0-0.262-0.064-0.477-0.192-0.643-0.122-0.173-0.323-0.259-0.605-0.259-0.218 0-0.413 0.077-0.586 0.23-0.173 0.147-0.285 0.371-0.336 0.672zM19.118 19.2l-1.19-4.762h1.402l0.461 2.208c0.038 0.237 0.074 0.47 0.106 0.701s0.067 0.467 0.106 0.71h0.038c0.045-0.243 0.086-0.483 0.125-0.72 0.045-0.237 0.096-0.467 0.154-0.691l0.528-2.208h1.219l0.538 2.208c0.058 0.237 0.109 0.47 0.154 0.701 0.051 0.23 0.099 0.467 0.144 0.71h0.038c0.045-0.243 0.080-0.48 0.106-0.71 0.032-0.23 0.070-0.464 0.115-0.701l0.451-2.208h1.306l-1.142 4.762h-1.651l-0.432-1.901c-0.045-0.224-0.090-0.448-0.134-0.672-0.038-0.224-0.080-0.464-0.125-0.72h-0.038c-0.045 0.256-0.086 0.496-0.125 0.72-0.032 0.224-0.070 0.448-0.115 0.672l-0.422 1.901h-1.613z"></path>
</symbol>
    <symbol id="icon2" viewBox="0 0 32 32">
        <path fill="#924dbf" style="fill: var(--color1, #924dbf)" d="M20.8 8c0-3.535-2.866-6.4-6.4-6.4s-6.4 2.865-6.4 6.4c0 3.535 2.866 6.4 6.4 6.4s6.4-2.865 6.4-6.4z"></path>
        <path fill="#924dbf" style="fill: var(--color1, #924dbf)" d="M19.2 14.4c-1.223 0.925-3.157 1.6-4.8 1.6-1.674 0-3.565-0.642-4.8-1.6-7.837 1.886-8.143 8.375-7.986 14.366 0.026 0.991 0.582 1.634 1.586 1.634l14.4-0v-4.8c0-1.63 0.491-3.2 3.2-3.2l5.6-0c0-4.8-3.2-8-7.2-8z"></path>
        <path fill="none" stroke="#924dbf" style="stroke: var(--color1, #924dbf)" stroke-linejoin="round" stroke-linecap="round" stroke-miterlimit="4" stroke-width="1.6" d="M20.8 27.2h9.6M30.4 27.2l-2.4-2.4M30.4 27.2l-2.4 2.4"></path>
    </symbol>
    <symbol id="icon3" viewBox="0 0 32 32">
        <path fill="#eea956" style="fill: var(--color2, #eea956)" d="M10.754 23.12l3.646 3.904c0.362 0.377 1.024 0.103 1.024-0.411v-3.459l2.894-0c1.579 0 2.861-1.335 2.861-2.978l0-12.398c0-1.643-1.283-2.978-2.861-2.978h-15.457c-1.579 0-2.861 1.335-2.861 2.978v12.364c0 1.643 1.283 2.978 2.861 2.978h7.893zM6.577 11.887l2.565-0.205 0.987-2.499c0.197-0.479 0.822-0.479 0.987 0l0.987 2.499 2.565 0.205c0.493 0.034 0.691 0.65 0.296 0.993l-1.973 1.746 0.625 2.602c0.131 0.479-0.395 0.89-0.822 0.616l-2.204-1.404-2.204 1.404c-0.428 0.274-0.921-0.137-0.822-0.616l0.625-2.602-1.973-1.746c-0.329-0.308-0.132-0.958 0.362-0.993zM24.896 9.764c-0.724 0-1.315-0.616-1.315-1.369s0.592-1.369 1.315-1.369h5.788c0.724 0 1.315 0.616 1.315 1.369s-0.592 1.369-1.315 1.369h-5.788zM23.614 13.838c0-0.753 0.592-1.369 1.316-1.369h4.276c0.724 0 1.315 0.616 1.315 1.369s-0.592 1.369-1.315 1.369h-4.308c-0.724 0-1.283-0.616-1.283-1.369zM23.614 19.281c0-0.753 0.592-1.369 1.316-1.369h2.598c0.724 0 1.315 0.616 1.315 1.369s-0.592 1.369-1.315 1.369h-2.631c-0.724 0-1.283-0.616-1.283-1.369z"></path>
    </symbol>
    <symbol id="exit-arrow" viewBox="0 0 37 32">
        <path fill="none" stroke="#f7f7f7" style="stroke: var(--color1, #f7f7f7)" stroke-linejoin="round" stroke-linecap="round" stroke-miterlimit="4" stroke-width="5.3333" d="M2.667 16h32M34.667 16l-12.444-13.333M34.667 16l-12.444 13.333"></path>
    </symbol>
    <symbol id="icon5" viewBox="0 0 32 32">
        <path fill="#3ed6a4" style="fill: var(--color1, #3ed6a4)" d="M17.112 32c-8.994 0-16.312-7.177-16.312-16s7.317-16 16.312-16c4.902 0 9.499 2.133 12.612 5.853 0.605 0.722 0.736 1.554 0 2.147-0.519 0.418-1.434 0.347-1.724 0-2.456-2.934-6.4-5.6-10.889-5.6-7.093 0-13.911 6.643-13.911 13.6s6.819 13.6 13.911 13.6c4.455 0 9.317-3.196 11.689-6.903 0.506-0.791 1.177-0.789 1.592-0.533 0.866 0.533 1.050 1.541 0.544 2.332-3.007 4.699-8.175 7.504-13.824 7.504z"></path>
        <path fill="#3ed6a4" style="fill: var(--color1, #3ed6a4)" d="M13.6 8l11.2 7.549-11.2 6.851v-14.4z"></path>
    </symbol>
    <symbol id="iconLike" viewBox="0 0 32 32">
        <path d="M6.856 2.058c3.116-0.955 6.556-0.392 9.147 1.459 2.451-1.8 6.017-2.408 9.13-1.459 5.924 1.813 8.050 7.94 6.244 13.3-2.813 8.497-15.374 15.041-15.374 15.041s-12.468-6.445-15.376-15.041c-1.807-5.361 0.305-11.487 6.229-13.3zM22.012 6.837c-0.642-0.164-1.296 0.223-1.46 0.865s0.223 1.296 0.865 1.46c2.212 0.566 3.524 2.052 3.675 3.531 0.068 0.659 0.657 1.139 1.316 1.071s1.139-0.657 1.071-1.316c-0.282-2.752-2.576-4.872-5.468-5.612z"></path>
    </symbol>
    <symbol id="iconMessage" viewBox="0 0 31 32">
        <path fill="#f4f6f8" style="fill: var(--color1, #f4f6f8)" d="M30.82 14.712c-0.284-4.21-2.41-8.142-5.776-10.751s-7.761-3.688-12.014-2.992c-7.584 1.288-13.147 8.176-12.616 15.761 0.248 3.653 1.807 7.028 4.43 9.603-0.673 0.974-1.276 1.601-2.87 2.853-0.319 0.244-0.461 0.626-0.354 1.009 0.071 0.383 0.354 0.696 0.709 0.8 0.531 0.174 1.311 0.244 2.197 0.244 1.878 0 4.252-0.418 6.095-1.357 2.445 0.835 5.068 1.044 7.655 0.591 7.584-1.322 13.077-8.246 12.545-15.761l0 0zM8.53 18.434c-1.382 0-2.481-1.079-2.481-2.435s1.098-2.435 2.481-2.435c1.382 0 2.481 1.079 2.481 2.435s-1.098 2.435-2.481 2.435zM15.618 18.434c-1.382 0-2.481-1.079-2.481-2.435s1.098-2.435 2.481-2.435c1.382 0 2.481 1.079 2.481 2.435s-1.099 2.435-2.481 2.435zM22.705 18.434c-1.382 0-2.481-1.079-2.481-2.435s1.099-2.435 2.481-2.435c1.382 0 2.481 1.079 2.481 2.435s-1.099 2.435-2.481 2.435z"></path>
    </symbol>
    <symbol id="iconCommunity" viewBox="0 0 32 32">
        <path fill="#f4f6f8" style="fill: var(--color1, #f4f6f8)" d="M25.284 24.099c0 2.618-4.245 4.741-9.481 4.741s-9.481-2.122-9.481-4.741c0-2.618 4.245-4.741 9.481-4.741s9.481 2.122 9.481 4.741z"></path>
        <path fill="#f4f6f8" style="fill: var(--color1, #f4f6f8)" d="M22.123 9.877c0 3.491-2.83 6.321-6.321 6.321s-6.321-2.83-6.321-6.321c0-3.491 2.83-6.321 6.321-6.321s6.321 2.83 6.321 6.321z"></path>
        <path fill="#f4f6f8" style="fill: var(--color1, #f4f6f8)" d="M8.296 5.876c-1.653 0.956-2.765 2.744-2.765 4.791s1.112 3.835 2.765 4.791c-0.814 0.471-1.758 0.74-2.765 0.74-3.055 0-5.531-2.476-5.531-5.531s2.476-5.531 5.531-5.531c1.007 0 1.952 0.269 2.765 0.74z"></path>
        <path fill="#f4f6f8" style="fill: var(--color1, #f4f6f8)" d="M23.309 5.876c1.653 0.956 2.765 2.744 2.765 4.791s-1.112 3.835-2.765 4.791c0.814 0.471 1.758 0.74 2.765 0.74 3.055 0 5.531-2.476 5.531-5.531s-2.476-5.531-5.531-5.531c-1.007 0-1.952 0.269-2.765 0.74z"></path>
        <path fill="#f4f6f8" style="fill: var(--color1, #f4f6f8)" d="M24.494 19.358c0 0 0 0 0 0 2.182 0 3.951 1.769 3.951 3.951 0 0.889-0.294 1.71-0.79 2.37 2.182-0 3.95-1.769 3.95-3.951s-1.769-3.951-3.951-3.951c-1.292 0-2.44 0.621-3.161 1.58z"></path>
        <path fill="#f4f6f8" style="fill: var(--color1, #f4f6f8)" d="M7.111 19.358c-0 0-0 0-0 0-2.182 0-3.951 1.769-3.951 3.951 0 0.889 0.294 1.71 0.79 2.37-2.182-0-3.95-1.769-3.95-3.951s1.769-3.951 3.951-3.951c1.292 0 2.44 0.621 3.161 1.58z"></path>
        <path fill="#ff6934" style="fill: var(--color2, #ff6934); stroke: var(--color3, #262d34)" stroke="#262d34" stroke-linejoin="miter" stroke-linecap="butt" stroke-miterlimit="4" stroke-width="1.5802" d="M30.815 5.926c0 2.618-2.122 4.741-4.741 4.741s-4.741-2.123-4.741-4.741c0-2.618 2.122-4.741 4.741-4.741s4.741 2.123 4.741 4.741z"></path>
    </symbol>
    <symbol id="iconNotification" viewBox="0 0 31 32">
        <path fill="#f4f6f8" style="fill: var(--color1, #f4f6f8)" d="M27.935 20.665h-0.64c1.762 0 3.18 1.392 3.18 3.109v0.624c0 0.692-0.569 1.243-1.271 1.243h-27.935c-0.702 0-1.271-0.557-1.271-1.243v-0.624c0-1.716 1.424-3.109 3.18-3.109h-0.64c0.698 0 1.268-0.558 1.268-1.245v-7.463c0-6.186 5.117-11.195 11.429-11.195 6.313 0 11.429 5.012 11.429 11.195v7.463c0 0.692 0.568 1.245 1.268 1.245h-0zM10.793 26.884h8.889c0 2.404-1.99 4.354-4.444 4.354s-4.444-1.949-4.444-4.354v0z"></path>
        <path fill="#ff6934" style="fill: var(--color2, #ff6934); stroke: var(--color3, #262d34)" stroke="#262d34" stroke-linejoin="miter" stroke-linecap="butt" stroke-miterlimit="4" stroke-width="1.5238" d="M29.714 6.095c0 2.525-2.047 4.571-4.571 4.571s-4.571-2.047-4.571-4.571c0-2.525 2.047-4.571 4.571-4.571s4.571 2.047 4.571 4.571z"></path>
    </symbol>
    <symbol id="iconHome" viewBox="0 0 32 32">
        <path fill="#fff" style="fill: var(--color4, #fff)" d="M30.568 12.278l-13.375-11.347c-0.381-0.345-0.877-0.537-1.391-0.537s-1.010 0.191-1.391 0.537l-13.374 11.347c-0.327 0.296-0.588 0.657-0.766 1.060s-0.271 0.839-0.271 1.279v16.333c0 0.278 0.111 0.545 0.307 0.742s0.464 0.308 0.742 0.308h8.432c0.873 0 1.58-0.708 1.58-1.58v-6.321c0-0.891 0.872-1.614 1.764-1.614h5.952c0.892 0 1.765 0.723 1.765 1.614v6.321c0 0.873 0.708 1.58 1.58 1.58h8.432c0.278 0 0.545-0.111 0.742-0.308s0.307-0.464 0.307-0.742v-16.333c0-0.441-0.092-0.876-0.271-1.279s-0.44-0.764-0.766-1.060z"></path>
    </symbol>
    <symbol id="iconArrowDown" viewBox="0 0 41 32">
        <path fill="#f4f6f8" style="fill: var(--color1, #f4f6f8)" d="M36.848 1.939h-31.030c-3.196 0-5.021 3.649-3.103 6.206l15.515 20.687c1.552 2.069 4.655 2.069 6.206 0l15.515-20.687c1.918-2.557 0.093-6.206-3.103-6.206z"></path>
    </symbol>
    <symbol id="iconSearch" viewBox="0 0 31 32">
        <path fill="none" stroke="#858ead" style="stroke: var(--color2, #858ead)" stroke-linejoin="miter" stroke-linecap="butt" stroke-miterlimit="4" stroke-width="3.0476" d="M26.286 14.095c0 6.733-5.458 12.19-12.191 12.19s-12.191-5.458-12.191-12.191c0-6.733 5.458-12.191 12.191-12.191s12.191 5.458 12.191 12.191z"></path>
        <path fill="none" stroke="#858ead" style="stroke: var(--color2, #858ead)" stroke-linejoin="miter" stroke-linecap="round" stroke-miterlimit="4" stroke-width="3.0476" d="M22.476 24l6.095 6.095"></path>
    </symbol>
    <symbol id="NavExitIcon" viewBox="0 0 32 32">
        <path d="M3.683 31.314c-0.95 0-1.763-0.338-2.438-1.014s-1.014-1.489-1.015-2.44v-6.908h3.454v6.908h24.178v-24.178h-24.178v6.908h-3.454v-6.908c0-0.95 0.339-1.763 1.015-2.438s1.49-1.014 2.439-1.015h24.178c0.95 0 1.763 0.339 2.44 1.015s1.015 1.49 1.014 2.438v24.178c0 0.95-0.338 1.763-1.014 2.44s-1.489 1.015-2.44 1.014h-24.178zM13.181 24.406l-2.418-2.504 4.404-4.404h-14.938v-3.454h14.938l-4.404-4.404 2.418-2.504 8.635 8.635-8.635 8.635z"></path>
    </symbol>
    <symbol id="NavThemeIcon" viewBox="0 0 32 32">
        <path d="M16.032 32c-4.483 0-8.276-1.552-11.378-4.655s-4.654-6.896-4.655-11.378c0-4.097 1.336-7.653 4.008-10.667s6.086-4.773 10.243-5.277c0.386-0.059 0.727-0.007 1.024 0.157s0.534 0.379 0.712 0.645c0.178 0.266 0.275 0.578 0.29 0.935s-0.096 0.699-0.335 1.024c-0.505 0.772-0.884 1.588-1.136 2.449s-0.379 1.767-0.378 2.717c0 2.672 0.935 4.943 2.806 6.814s4.142 2.806 6.814 2.806c0.92 0 1.834-0.134 2.74-0.401s1.715-0.638 2.426-1.113c0.327-0.208 0.661-0.304 1.003-0.289s0.646 0.097 0.912 0.244c0.297 0.148 0.527 0.371 0.691 0.668s0.216 0.653 0.155 1.069c-0.416 4.097-2.16 7.497-5.232 10.199s-6.643 4.053-10.711 4.053zM16.032 28.437c2.613 0 4.958-0.72 7.036-2.161s3.592-3.318 4.543-5.633c-0.594 0.149-1.188 0.267-1.781 0.356s-1.188 0.134-1.781 0.134c-3.652 0-6.762-1.284-9.331-3.853s-3.852-5.678-3.851-9.329c0-0.594 0.045-1.188 0.134-1.781s0.208-1.188 0.356-1.781c-2.316 0.95-4.194 2.464-5.634 4.543s-2.16 4.424-2.159 7.037c0 3.444 1.217 6.383 3.652 8.818s5.374 3.652 8.818 3.652z"></path>
    </symbol>
    <symbol id="NavSettingsIcon" viewBox="0 0 32 32">
        <path d="M11.987 31.848l-0.619-4.974c-0.335-0.13-0.651-0.285-0.947-0.466s-0.586-0.376-0.871-0.583l-4.601 1.943-4.253-7.383 3.982-3.031c-0.026-0.181-0.039-0.356-0.039-0.524v-1.049c0-0.169 0.013-0.344 0.039-0.525l-3.982-3.031 4.253-7.383 4.601 1.943c0.284-0.207 0.58-0.402 0.889-0.583s0.619-0.337 0.928-0.466l0.619-4.974h8.506l0.619 4.974c0.335 0.13 0.651 0.285 0.948 0.466s0.587 0.376 0.869 0.583l4.601-1.943 4.253 7.383-3.982 3.031c0.026 0.181 0.039 0.356 0.039 0.525v1.048c0 0.169-0.026 0.344-0.077 0.525l3.982 3.031-4.253 7.383-4.562-1.943c-0.284 0.207-0.58 0.402-0.889 0.583s-0.619 0.337-0.928 0.466l-0.619 4.974h-8.506zM16.317 21.745c1.495 0 2.771-0.531 3.828-1.593s1.585-2.344 1.585-3.847-0.528-2.785-1.585-3.847c-1.057-1.062-2.333-1.593-3.828-1.593-1.521 0-2.803 0.531-3.848 1.593s-1.566 2.344-1.565 3.847 0.523 2.785 1.567 3.847c1.043 1.062 2.325 1.593 3.846 1.593z"></path>
    </symbol>
    <symbol id="CalendarIcon" viewBox="0 0 32 32">
        <path fill="#fff" style="fill: var(--color1, #fff)" d="M8.889 3.2h14.222v-3.2h3.556v3.2h1.778c0.943 0 1.847 0.337 2.514 0.937s1.041 1.414 1.041 2.263v22.4c0 0.849-0.375 1.663-1.041 2.263s-1.571 0.937-2.514 0.937h-24.889c-0.943 0-1.847-0.337-2.514-0.937s-1.041-1.414-1.041-2.263v-22.4c0-0.849 0.375-1.663 1.041-2.263s1.571-0.937 2.514-0.937h1.778v-3.2h3.556v3.2zM3.556 9.6v19.2h24.889v-19.2h-24.889zM7.111 14.4h3.556v3.2h-3.556v-3.2zM14.222 14.4h3.556v3.2h-3.556v-3.2zM21.333 14.4h3.556v3.2h-3.556v-3.2zM21.333 20.8h3.556v3.2h-3.556v-3.2zM14.222 20.8h3.556v3.2h-3.556v-3.2zM7.111 20.8h3.556v3.2h-3.556v-3.2z"></path>
    </symbol>
    <symbol id="closeBtnIcon" viewBox="0 0 32 32">
        <path d="M16.215 19.57l-11.741 11.74c-0.439 0.439-0.998 0.659-1.677 0.659s-1.238-0.22-1.677-0.659c-0.439-0.439-0.659-0.998-0.659-1.677s0.22-1.238 0.659-1.677l11.741-11.74-11.741-11.741c-0.439-0.439-0.659-0.998-0.659-1.677s0.22-1.238 0.659-1.677c0.439-0.439 0.998-0.659 1.677-0.659s1.238 0.22 1.677 0.659l11.741 11.741 11.74-11.741c0.439-0.439 0.998-0.659 1.677-0.659s1.238 0.22 1.677 0.659c0.439 0.439 0.659 0.998 0.659 1.677s-0.22 1.238-0.659 1.677l-11.74 11.741 11.74 11.74c0.439 0.439 0.659 0.998 0.659 1.677s-0.22 1.238-0.659 1.677c-0.439 0.439-0.998 0.659-1.677 0.659s-1.238-0.22-1.677-0.659l-11.74-11.74z"></path>
    </symbol>
    <symbol id="starIcon" viewBox="0 0 24 24">
        <path class="star-bg" d="M12 2l3.09 6.26L22 9.27l-5 4.87L18.18 22 12 18.27 5.82 22 7 14.14l-5-4.87 6.91-1.01L12 2z"/>
        <path class="star-outline" d="M12 2l3.09 6.26L22 9.27l-5 4.87L18.18 22 12 18.27 5.82 22 7 14.14l-5-4.87 6.91-1.01L12 2z"/>
    </symbol>
    <symbol id="commentIcon" viewBox="0 0 30 32">
        <path d="M15.238 4.571c-2.313 0-4.476 0.414-6.488 1.241s-3.611 1.943-4.796 3.348c-1.185 1.405-1.777 2.923-1.777 4.554 0 1.333 0.405 2.604 1.216 3.813s1.953 2.253 3.427 3.134l1.48 0.893-0.459 1.714c-0.272 1.083-0.669 2.107-1.19 3.072 1.723-0.75 3.282-1.768 4.677-3.054l0.731-0.679 0.969 0.107c0.782 0.095 1.519 0.143 2.211 0.143 2.313 0 4.476-0.414 6.488-1.241s3.611-1.943 4.796-3.348c1.185-1.405 1.777-2.923 1.777-4.554s-0.592-3.149-1.777-4.554c-1.185-1.405-2.783-2.521-4.796-3.348s-4.175-1.241-6.488-1.241zM30.476 13.714c0 2.071-0.68 3.985-2.041 5.741s-3.209 3.143-5.544 4.161c-2.336 1.018-4.887 1.527-7.653 1.527-0.794 0-1.616-0.048-2.466-0.143-2.245 2.083-4.853 3.524-7.823 4.321-0.556 0.167-1.202 0.298-1.939 0.393h-0.085c-0.17 0-0.323-0.062-0.459-0.187s-0.227-0.289-0.272-0.491v-0.018c-0.034-0.048-0.037-0.119-0.009-0.214s0.040-0.155 0.034-0.178c-0.006-0.024 0.020-0.080 0.077-0.17l0.102-0.161 0.119-0.152 0.136-0.161c0.079-0.095 0.255-0.301 0.527-0.616s0.468-0.542 0.587-0.679c0.119-0.137 0.295-0.372 0.527-0.705s0.417-0.637 0.553-0.911 0.289-0.625 0.459-1.054c0.17-0.428 0.317-0.881 0.442-1.357-1.78-1.059-3.183-2.369-4.209-3.929s-1.539-3.232-1.539-5.018c0-2.071 0.68-3.985 2.041-5.741s3.209-3.143 5.544-4.161c2.336-1.018 4.887-1.527 7.653-1.527s5.317 0.509 7.653 1.527c2.336 1.018 4.184 2.405 5.544 4.161s2.041 3.67 2.041 5.741z"></path>
    </symbol>
    <symbol id="changeProfileIcon" viewBox="0 0 37 32">
        <path d="M1.682 32h10.091c0.446 0 0.874-0.186 1.189-0.518s0.493-0.782 0.493-1.251c0-0.469-0.177-0.919-0.493-1.251s-0.743-0.518-1.189-0.518h-8.29c0.408-2.946 1.81-5.639 3.949-7.588s4.874-3.023 7.704-3.027c1.98 0.018 3.904-0.693 5.438-2.011s2.582-3.158 2.961-5.203 0.067-4.164-0.883-5.992c-0.95-1.828-2.479-3.248-4.32-4.015s-3.88-0.832-5.762-0.184-3.489 1.968-4.543 3.732c-1.054 1.764-1.488 3.86-1.227 5.925s1.201 3.969 2.656 5.382c-2.792 1.191-5.182 3.231-6.867 5.858s-2.586 5.723-2.59 8.892c0 0.469 0.177 0.919 0.493 1.251s0.743 0.518 1.189 0.518zM15.136 3.694c0.998 0 1.973 0.311 2.803 0.894s1.477 1.412 1.858 2.382c0.382 0.97 0.482 2.037 0.287 3.066s-0.675 1.975-1.381 2.717c-0.706 0.742-1.605 1.248-2.583 1.453s-1.993 0.1-2.915-0.302c-0.922-0.402-1.71-1.082-2.264-1.955s-0.85-1.899-0.85-2.949c0-1.408 0.532-2.758 1.478-3.753s2.23-1.554 3.568-1.554zM32.303 11.289c-0.315-0.332-0.743-0.518-1.189-0.518s-0.874 0.186-1.189 0.518l-10.512 11.057c-0.184 0.195-0.322 0.431-0.405 0.692l-2.102 6.634c-0.084 0.266-0.107 0.549-0.067 0.826s0.142 0.54 0.298 0.767c0.156 0.227 0.36 0.413 0.598 0.54s0.5 0.195 0.766 0.195c0.181-0 0.36-0.031 0.531-0.090l6.307-2.212c0.248-0.087 0.473-0.234 0.658-0.428l10.512-11.057c0.315-0.332 0.492-0.782 0.492-1.251s-0.177-0.919-0.492-1.251l-4.205-4.423zM23.894 26.473l-2.74 0.961 0.913-2.882 9.046-9.511 1.827 1.921-9.047 9.511z"></path>
    </symbol>
    <symbol id="diceIcon" viewBox="0 0 640 512">
        <path d="M274.9 34.3c-28.1-28.1-73.7-28.1-101.8 0L34.3 173.1c-28.1 28.1-28.1 73.7 0 101.8L173.1 413.7c28.1 28.1 73.7 28.1 101.8 0L413.7 274.9c28.1-28.1 28.1-73.7 0-101.8L274.9 34.3zM200 224a24 24 0 1 1 48 0 24 24 0 1 1 -48 0zM96 200a24 24 0 1 1 0 48 24 24 0 1 1 0-48zM224 376a24 24 0 1 1 0-48 24 24 0 1 1 0 48zM352 200a24 24 0 1 1 0 48 24 24 0 1 1 0-48zM224 120a24 24 0 1 1 0-48 24 24 0 1 1 0 48zm96 328c0 35.3 28.7 64 64 64l192 0c35.3 0 64-28.7 64-64l0-192c0-35.3-28.7-64-64-64l-114.3 0c11.6 36 3.1 77-25.4 105.5L320 413.8l0 34.2zM480 328a24 24 0 1 1 0 48 24 24 0 1 1 0-48z"/>
    </symbol>
    <symbol id="iconHamburger" viewBox="0 0 448 512">
        <path d="M0 96C0 78.3 14.3 64 32 64l384 0c17.7 0 32 14.3 32 32s-14.3 32-32 32L32 128C14.3 128 0 113.7 0 96zM0 256c0-17.7 14.3-32 32-32l384 0c17.7 0 32 14.3 32 32s-14.3 32-32 32L32 288c-17.7 0-32-14.3-32-32zM448 416c0 17.7-14.3 32-32 32L32 448c-17.7 0-32-14.3-32-32s14.3-32 32-32l384 0c17.7 0 32 14.3 32 32z"/>
    </symbol>
    <symbol id="iconProfile" viewBox="0 0 448 512">
        <path fill="#ffffff" d="M224 256A128 128 0 1 0 224 0a128 128 0 1 0 0 256zm-45.7 48C79.8 304 0 383.8 0 482.3C0 498.7 13.3 512 29.7 512l388.6 0c16.4 0 29.7-13.3 29.7-29.7C448 383.8 368.2 304 269.7 304l-91.4 0z"/>
    </symbol>
    <symbol id="paperClipIcon" viewBox="0 0 28 32">
        <path fill="#f4f6f8" style="fill: var(--color1, #f4f6f8)" d="M24.653 17.248l-9.825 9.841c-1.288 1.145-2.965 1.754-4.687 1.703s-3.36-0.758-4.579-1.976c-1.218-1.218-1.925-2.856-1.976-4.579s0.559-3.399 1.703-4.687l12.718-12.718c0.759-0.721 1.767-1.123 2.814-1.123s2.055 0.402 2.814 1.123c0.74 0.75 1.155 1.761 1.155 2.814s-0.415 2.064-1.155 2.814l-10.969 10.953c-0.109 0.117-0.239 0.211-0.384 0.278s-0.302 0.104-0.461 0.11c-0.322 0.012-0.636-0.105-0.872-0.324-0.117-0.109-0.211-0.239-0.278-0.384s-0.104-0.302-0.11-0.461c-0.012-0.322 0.105-0.636 0.324-0.872l8.155-8.14c0.299-0.299 0.468-0.705 0.468-1.129s-0.168-0.829-0.468-1.129c-0.299-0.299-0.705-0.468-1.129-0.468s-0.829 0.168-1.129 0.468l-8.155 8.171c-0.408 0.405-0.732 0.887-0.953 1.417s-0.335 1.1-0.335 1.675c0 0.575 0.114 1.144 0.335 1.675s0.545 1.012 0.953 1.417c0.834 0.794 1.941 1.237 3.092 1.237s2.258-0.443 3.092-1.237l10.953-10.969c1.264-1.356 1.951-3.15 1.919-5.003s-0.784-3.622-2.094-4.932c-1.311-1.311-3.079-2.062-4.932-2.094s-3.647 0.655-5.003 1.919l-12.718 12.718c-1.715 1.899-2.631 4.387-2.557 6.945s1.132 4.989 2.954 6.786 4.267 2.822 6.826 2.861c2.559 0.039 5.034-0.911 6.91-2.651l9.841-9.825c0.148-0.148 0.266-0.324 0.346-0.518s0.121-0.401 0.121-0.611-0.041-0.417-0.121-0.611c-0.080-0.194-0.198-0.37-0.346-0.518s-0.324-0.266-0.518-0.346c-0.194-0.080-0.401-0.122-0.611-0.122s-0.417 0.041-0.611 0.122c-0.194 0.080-0.37 0.198-0.518 0.346v0.032z"></path>
    </symbol>
    <symbol id="sendIcon" viewBox="0 0 35 32">
        <path fill="none" stroke="#fff" style="stroke: var(--color2, #fff)" stroke-linejoin="round" stroke-linecap="butt" stroke-miterlimit="4" stroke-width="2.0317" d="M32.889 1.524l-31.365 10.772 16.508 2.949 4.131 15.232 10.726-28.952z"></path>
        <path fill="none" stroke="#fff" style="stroke: var(--color2, #fff)" stroke-linejoin="round" stroke-linecap="round" stroke-miterlimit="4" stroke-width="2.0317" d="M18.039 15.245l4.669-4.31"></path>
    </symbol>
    <symbol id="iconCrown" viewBox="0 0 32 32">
        <path d="M28.113 8.641l-6.081 3.747-5.831-7.778c-0.023-0.031-0.054-0.057-0.089-0.074s-0.074-0.027-0.113-0.027c-0.039 0-0.078 0.009-0.113 0.027s-0.065 0.043-0.089 0.074l-5.828 7.778-6.084-3.747c-0.178-0.109-0.409 0.037-0.381 0.247l2.387 18.144c0.034 0.247 0.247 0.438 0.5 0.438h19.222c0.25 0 0.466-0.188 0.497-0.438l2.387-18.144c0.025-0.209-0.203-0.356-0.384-0.247zM24.175 25.331h-16.353l-1.681-12.794 4.369 2.691 5.491-7.325 5.491 7.325 4.369-2.691-1.684 12.794zM16 15.906c-1.941 0-3.519 1.578-3.519 3.519s1.578 3.519 3.519 3.519c1.941 0 3.519-1.578 3.519-3.519s-1.578-3.519-3.519-3.519zM16 20.934c-0.831 0-1.506-0.675-1.506-1.509 0-0.831 0.675-1.509 1.506-1.509s1.506 0.675 1.506 1.509c0 0.831-0.675 1.509-1.506 1.509z"></path>
    </symbol>
    <symbol id="moreIcon" viewBox="0 0 32 32">
        <path fill="none" stroke="#e4e3e3" style="stroke: var(--color1, #e4e3e3)" stroke-linejoin="miter" stroke-linecap="butt" stroke-miterlimit="4" stroke-width="0.9042" d="M31.195 15.824c0 8.489-6.882 15.372-15.372 15.372s-15.372-6.882-15.372-15.372c0-8.489 6.882-15.372 15.372-15.372s15.372 6.882 15.372 15.372z"></path>
        <path fill="#e4e3e3" style="fill: var(--color1, #e4e3e3)" d="M18.053 15.675c0 1.166-0.945 2.112-2.112 2.112s-2.112-0.945-2.112-2.112c0-1.166 0.945-2.112 2.112-2.112s2.112 0.945 2.112 2.112z"></path>
        <path fill="#e4e3e3" style="fill: var(--color1, #e4e3e3)" d="M23.745 15.675c0 1.166-0.945 2.112-2.112 2.112s-2.112-0.945-2.112-2.112c0-1.166 0.945-2.112 2.112-2.112s2.112 0.945 2.112 2.112z"></path>
        <path fill="#e4e3e3" style="fill: var(--color1, #e4e3e3)" d="M12.361 15.675c0 1.166-0.945 2.112-2.112 2.112s-2.112-0.945-2.112-2.112c0-1.166 0.945-2.112 2.112-2.112s2.112 0.945 2.112 2.112z"></path>
    </symbol>
    <symbol id="pinIcon" viewBox="0 0 33 32">
        <path fill="#fff" style="fill: var(--color1, #fff)" d="M22.068 19.238l-0.23-0.183 2.364-6.189 0.415 0.33c0.737 0.586 1.66 0.656 2.058 0.155s0.122-1.384-0.615-1.97l-7.281-5.789c-0.737-0.586-1.66-0.656-2.058-0.155s-0.122 1.384 0.615 1.97l0.415 0.33-5.451 3.734-0.23-0.183c-0.737-0.586-1.66-0.656-2.058-0.155s-0.122 1.384 0.615 1.97l3.871 3.078-4.329 5.444c-0.398 0.501-0.147 1.415 0.636 2.038s1.706 0.693 2.129 0.161l4.304-5.412 3.41 2.712c0.737 0.586 1.66 0.656 2.058 0.155s0.101-1.452-0.636-2.038z"></path>
    </symbol>
    <symbol id="iconLow" viewBox="0 0 40 32">
        <path fill="#210d62" style="fill: var(--color2, #210d62)" d="M20.021 31.516l-18.569-30.696h37.138l-18.569 30.696z"></path>
    </symbol>
    <symbol id="iconHigh" viewBox="0 0 40 32">
        <path fill="#ff4155" style="fill: var(--color3, #ff4155)" d="M19.852 0l18.569 30.696h-37.138l18.569-30.696z"></path>
    </symbol>
    <symbol id="icon-comment" viewBox="0 0 30 32">
        <path fill="#fff" style="fill: var(--color1, #fff)" d="M22.737 16c-1.046 0-1.895-0.896-1.895-2s0.849-2 1.895-2c1.046 0 1.895 0.896 1.895 2s-0.849 2-1.895 2zM15.158 16c-1.046 0-1.895-0.896-1.895-2s0.849-2 1.895-2c1.046 0 1.895 0.896 1.895 2s-0.849 2-1.895 2zM7.579 16c-1.046 0-1.895-0.896-1.895-2s0.849-2 1.895-2c1.046 0 1.895 0.896 1.895 2s-0.849 2-1.895 2zM15.158 0c-8.371 0-15.158 6.269-15.158 14 0 4.419 2.222 8.354 5.684 10.919v7.081l6.64-4.253c0.919 0.16 1.864 0.253 2.834 0.253 8.371 0 15.158-6.268 15.158-14 0-7.731-6.787-14-15.158-14z"></path>
    </symbol>
    <symbol id="icon-share" viewBox="0 0 38 32">
        <path fill="#fff" style="fill: var(--color1, #fff)" d="M36.706 14.065l-16.067-14.065v7.176c-15.66 0.137-21.469 12.709-19.594 24.824 3.424-7.531 10.541-10.497 19.594-10.835v6.964l16.067-14.065z"></path>
    </symbol>
    <symbol id="icon-save" viewBox="0 0 32 32">
        <path d="M25.143 0.377h-18.286c-3.886 0-6.857 2.036-6.857 4.698v25.058c0 0.313 0 0.47 0.229 0.783 0.686 0.783 2.057 0.94 3.2 0.626l12.571-6.962 12.571 6.962c0.457 0.157 0.686 0.157 1.143 0.157 1.371 0 2.286-0.626 2.286-1.566v-25.058c0-2.662-2.971-4.698-6.857-4.698z"></path>
    </symbol>
    <symbol id="ratings" viewBox="0 0 448 512">
        <path fill="#fff" style="fill: var(--color1, #fff)" d="M64 32C28.7 32 0 60.7 0 96L0 416c0 35.3 28.7 64 64 64l320 0c35.3 0 64-28.7 64-64l0-320c0-35.3-28.7-64-64-64L64 32zm64 192c17.7 0 32 14.3 32 32l0 96c0 17.7-14.3 32-32 32s-32-14.3-32-32l0-96c0-17.7 14.3-32 32-32zm64-64c0-17.7 14.3-32 32-32s32 14.3 32 32l0 192c0 17.7-14.3 32-32 32s-32-14.3-32-32l0-192zM320 288c17.7 0 32 14.3 32 32l0 32c0 17.7-14.3 32-32 32s-32-14.3-32-32l0-32c0-17.7 14.3-32 32-32z"></path>
    </symbol>
    <symbol id="white-heart" viewBox="0 0 512 512">
        <path fill="#fff" style="fill: var(--color1, #fff)" d="M225.8 468.2l-2.5-2.3L48.1 303.2C17.4 274.7 0 234.7 0 192.8l0-3.3c0-70.4 50-130.8 119.2-144C158.6 37.9 198.9 47 231 69.6c9 6.4 17.4 13.8 25 22.3c4.2-4.8 8.7-9.2 13.5-13.3c3.7-3.2 7.5-6.2 11.5-9c0 0 0 0 0 0C313.1 47 353.4 37.9 392.8 45.4C462 58.6 512 119.1 512 189.5l0 3.3c0 41.9-17.4 81.9-48.1 110.4L288.7 465.9l-2.5 2.3c-8.2 7.6-19 11.9-30.2 11.9s-22-4.2-30.2-11.9zM239.1 145c-.4-.3-.7-.7-1-1.1l-17.8-20-.1-.1s0 0 0 0c-23.1-25.9-58-37.7-92-31.2C81.6 101.5 48 142.1 48 189.5l0 3.3c0 28.5 11.9 55.8 32.8 75.2L256 430.7 431.2 268c20.9-19.4 32.8-46.7 32.8-75.2l0-3.3c0-47.3-33.6-88-80.1-96.9c-34-6.5-69 5.4-92 31.2c0 0 0 0-.1 .1s0 0-.1 .1l-17.8 20c-.3 .4-.7 .7-1 1.1c-4.5 4.5-10.6 7-16.9 7s-12.4-2.5-16.9-7z"></path>
    </symbol>
    <symbol id="white-save" viewBox="0 0 384 512">
        <path fill="#fff" style="fill: var(--color1, #fff)" d="M0 48C0 21.5 21.5 0 48 0l0 48 0 393.4 130.1-92.9c8.3-6 19.6-6 27.9 0L336 441.4 336 48 48 48 48 0 336 0c26.5 0 48 21.5 48 48l0 440c0 9-5 17.2-13 21.3s-17.6 3.4-24.9-1.8L192 397.5 37.9 507.5c-7.3 5.2-16.9 5.9-24.9 1.8S0 497 0 488L0 48z"/>
    </symbol>
    <symbol id="white-comments" viewBox="0 0 512 512">
        <path fill="#fff" style="fill: var(--color1, #fff)" d="M123.6 391.3c12.9-9.4 29.6-11.8 44.6-6.4c26.5 9.6 56.2 15.1 87.8 15.1c124.7 0 208-80.5 208-160s-83.3-160-208-160S48 160.5 48 240c0 32 12.4 62.8 35.7 89.2c8.6 9.7 12.8 22.5 11.8 35.5c-1.4 18.1-5.7 34.7-11.3 49.4c17-7.9 31.1-16.7 39.4-22.7zM21.2 431.9c1.8-2.7 3.5-5.4 5.1-8.1c10-16.6 19.5-38.4 21.4-62.9C17.7 326.8 0 285.1 0 240C0 125.1 114.6 32 256 32s256 93.1 256 208s-114.6 208-256 208c-37.1 0-72.3-6.4-104.1-17.9c-11.9 8.7-31.3 20.6-54.3 30.6c-15.1 6.6-32.3 12.6-50.1 16.1c-.8 .2-1.6 .3-2.4 .5c-4.4 .8-8.7 1.5-13.2 1.9c-.2 0-.5 .1-.7 .1c-5.1 .5-10.2 .8-15.3 .8c-6.5 0-12.3-3.9-14.8-9.9c-2.5-6-1.1-12.8 3.4-17.4c4.1-4.2 7.8-8.7 11.3-13.5c1.7-2.3 3.3-4.6 4.8-6.9l.3-.5z"/>
    </symbol>
    <symbol id="posts" viewBox="0 0 512 512">
        <path fill="#fff" style="fill: var(--color1, #fff)" d="M441 58.9L453.1 71c9.4 9.4 9.4 24.6 0 33.9L424 134.1 377.9 88 407 58.9c9.4-9.4 24.6-9.4 33.9 0zM209.8 256.2L344 121.9 390.1 168 255.8 302.2c-2.9 2.9-6.5 5-10.4 6.1l-58.5 16.7 16.7-58.5c1.1-3.9 3.2-7.5 6.1-10.4zM373.1 25L175.8 222.2c-8.7 8.7-15 19.4-18.3 31.1l-28.6 100c-2.4 8.4-.1 17.4 6.1 23.6s15.2 8.5 23.6 6.1l100-28.6c11.8-3.4 22.5-9.7 31.1-18.3L487 138.9c28.1-28.1 28.1-73.7 0-101.8L474.9 25C446.8-3.1 401.2-3.1 373.1 25zM88 64C39.4 64 0 103.4 0 152L0 424c0 48.6 39.4 88 88 88l272 0c48.6 0 88-39.4 88-88l0-112c0-13.3-10.7-24-24-24s-24 10.7-24 24l0 112c0 22.1-17.9 40-40 40L88 464c-22.1 0-40-17.9-40-40l0-272c0-22.1 17.9-40 40-40l112 0c13.3 0 24-10.7 24-24s-10.7-24-24-24L88 64z"/>
    </symbol>
    <symbol id="icon-addPhoto" viewBox="0 0 32 32">
        <path fill="#2c353d" style="fill: var(--color1, #2c353d)" d="M0.501 15.685c0-8.663 7.023-15.685 15.685-15.685s15.685 7.023 15.685 15.685v0.629c0 8.663-7.023 15.685-15.685 15.685s-15.685-7.023-15.685-15.685v-0.629z"></path>
        <path fill="#fff" style="fill: var(--color2, #fff)" d="M8.595 23.864h11.632c0.471 0 0.899-0.198 1.208-0.514l0.029-0.032c0.294-0.315 0.476-0.741 0.476-1.202v-5.017c-0.477 0.139-0.98 0.215-1.501 0.215-0.25 0-0.496-0.018-0.737-0.051l1.316 1.25v3.604c0 0.209-0.081 0.404-0.214 0.55l-0.021 0.020c-0.144 0.146-0.341 0.239-0.557 0.239h-11.632c-0.209 0-0.398-0.083-0.539-0.216l-0.020-0.022c-0.143-0.146-0.233-0.349-0.233-0.57v-6.259c1.020 0.938 2.653 2.25 3.684 3.134 0.168 0.148 0.419 0.145 0.584 0.001 0.034-0.028 0.058-0.063 0.086-0.097l2.402-3.715 0.858 2.665c0.069 0.372 0.5 0.496 0.761 0.248l1.552-1.516c-0.268-0.158-0.521-0.338-0.758-0.539l-0.799 0.782-0.876-2.771c-0.055-0.392-0.532-0.541-0.79-0.238l-2.768 4.163-3.935-3.366v-2.803c0-0.22 0.091-0.422 0.234-0.568 0.144-0.148 0.343-0.24 0.558-0.24h6.468c0.044-0.323 0.116-0.637 0.213-0.94h-6.681c-0.468 0-0.898 0.198-1.209 0.515-0.309 0.316-0.504 0.753-0.504 1.233v10.311c0 0.481 0.193 0.918 0.503 1.235l0.032 0.029c0.309 0.299 0.724 0.484 1.179 0.484zM20.438 15.958c1.132 0 2.157-0.468 2.899-1.225s1.201-1.802 1.201-2.957-0.459-2.201-1.201-2.957c-0.742-0.757-1.767-1.225-2.899-1.225s-2.157 0.468-2.899 1.225c-0.742 0.756-1.201 1.803-1.201 2.957 0 1.154 0.459 2.199 1.201 2.956 0.744 0.758 1.768 1.227 2.899 1.227zM20.143 13.633h0.592c0.14 0 0.255-0.119 0.255-0.26v-1.036h1.015c0.14 0 0.255-0.12 0.255-0.26v-0.603c0-0.141-0.116-0.26-0.255-0.26h-1.015v-1.036c0-0.141-0.116-0.26-0.255-0.26h-0.592c-0.139 0-0.255 0.117-0.255 0.26v1.036h-1.016c-0.139 0-0.255 0.117-0.255 0.26v0.603c0 0.143 0.115 0.26 0.255 0.26h1.016v1.036c0 0.143 0.114 0.26 0.255 0.26zM22.778 14.162c-0.598 0.61-1.426 0.988-2.339 0.988s-1.742-0.377-2.34-0.987c-0.598-0.61-0.968-1.455-0.968-2.387s0.371-1.776 0.969-2.386c0.599-0.611 1.426-0.988 2.34-0.988s1.741 0.378 2.34 0.988c0.598 0.61 0.969 1.455 0.969 2.386s-0.37 1.776-0.969 2.386zM16.12 21.714c0.381 0 0.726-0.158 0.976-0.413s0.404-0.607 0.404-0.996c0-0.388-0.154-0.741-0.404-0.996s-0.596-0.413-0.976-0.413c-0.381 0-0.726 0.158-0.976 0.413s-0.404 0.608-0.404 0.996c0 0.389 0.154 0.741 0.404 0.996s0.595 0.413 0.976 0.413zM16.542 20.735c-0.112 0.114-0.263 0.178-0.421 0.178-0.164 0-0.314-0.068-0.421-0.178-0.112-0.114-0.174-0.269-0.174-0.43 0-0.168 0.067-0.32 0.174-0.43s0.257-0.178 0.421-0.178 0.314 0.068 0.421 0.178c0.107 0.11 0.174 0.262 0.174 0.43s-0.067 0.32-0.174 0.43z"></path>
    </symbol>
    <symbol id="icon-selectGroup" viewBox="0 0 38 32">
        <path fill="#fff" style="fill: var(--color1, #fff)" d="M11.964 8.686c0 1.846 0.722 3.978 1.931 5.701 1.373 1.956 3.108 3.034 4.887 3.034s3.515-1.077 4.887-3.034c1.209-1.723 1.931-3.854 1.931-5.701 0-3.76-3.059-6.819-6.819-6.819s-6.819 3.059-6.819 6.819zM18.782 3.051c3.107 0 5.634 2.528 5.634 5.634 0 1.588-0.658 3.512-1.716 5.021-1.128 1.608-2.556 2.53-3.918 2.53s-2.79-0.922-3.918-2.53c-1.059-1.509-1.716-3.432-1.716-5.021 0-3.107 2.528-5.634 5.634-5.634z"></path>
        <path fill="#fff" style="fill: var(--color1, #fff)" d="M23.87 16.098c-0.226-0.108-0.495-0.061-0.673 0.115-1.324 1.32-2.851 2.018-4.416 2.018s-3.091-0.698-4.415-2.018c-0.177-0.177-0.447-0.223-0.673-0.115-1.994 0.949-3.681 2.434-4.88 4.294-1.231 1.91-1.882 4.127-1.882 6.41v0.010c0 0.167 0.071 0.326 0.194 0.439 3.197 2.899 7.336 4.495 11.655 4.495s8.458-1.597 11.655-4.495c0.124-0.112 0.194-0.271 0.194-0.439v-0.010c0-2.283-0.651-4.499-1.881-6.41-1.198-1.86-2.885-3.345-4.879-4.294zM18.782 30.561c-3.936 0-7.712-1.423-10.662-4.012 0.046-1.965 0.628-3.867 1.69-5.515 1.006-1.561 2.394-2.828 4.031-3.685 1.48 1.354 3.18 2.068 4.941 2.068s3.461-0.713 4.942-2.068c1.637 0.857 3.025 2.124 4.030 3.685 1.062 1.648 1.644 3.55 1.69 5.515-2.95 2.59-6.726 4.012-10.662 4.012z"></path>
        <path fill="#fff" style="fill: var(--color1, #fff)" d="M35.925 16.471c-1.044-1.621-2.515-2.915-4.252-3.742-0.226-0.108-0.495-0.061-0.673 0.115-1.13 1.127-2.431 1.722-3.762 1.722-0.722 0-1.435-0.174-2.121-0.517-0.292-0.146-0.648-0.028-0.794 0.264s-0.028 0.648 0.265 0.794c0.852 0.426 1.744 0.643 2.651 0.643 1.526 0 3-0.611 4.286-1.771 1.382 0.734 2.554 1.81 3.406 3.133 0.903 1.402 1.402 3.019 1.448 4.69-1.462 1.276-3.201 2.246-5.045 2.813-0.313 0.096-0.488 0.428-0.392 0.74 0.078 0.255 0.313 0.418 0.566 0.418 0.058 0 0.116-0.009 0.174-0.026 2.093-0.644 4.060-1.765 5.69-3.244 0.124-0.112 0.194-0.271 0.194-0.439v-0.008c-0-1.99-0.567-3.921-1.64-5.586z"></path>
        <path fill="#fff" style="fill: var(--color1, #fff)" d="M10.302 13.833c0.626 0 1.251-0.153 1.856-0.454 0.293-0.146 0.412-0.501 0.267-0.794s-0.501-0.412-0.794-0.267c-0.441 0.219-0.888 0.33-1.329 0.33-1.148 0-2.355-0.783-3.313-2.147-0.904-1.288-1.465-2.93-1.465-4.284 0-2.635 2.143-4.778 4.778-4.778 1.243 0 2.421 0.475 3.316 1.339 0.235 0.227 0.61 0.22 0.837-0.015s0.22-0.61-0.015-0.837c-1.117-1.077-2.586-1.671-4.138-1.671-3.288 0-5.962 2.675-5.962 5.962 0 1.609 0.628 3.465 1.68 4.964 1.2 1.71 2.72 2.651 4.282 2.651z"></path>
        <path fill="#fff" style="fill: var(--color1, #fff)" d="M4.818 24.069c-1.323-0.57-2.543-1.34-3.631-2.29 0.046-1.667 0.543-3.279 1.444-4.677 0.849-1.318 2.018-2.392 3.395-3.123 1.282 1.157 2.752 1.766 4.274 1.766 0.915 0 1.813-0.22 2.671-0.653 0.292-0.148 0.409-0.504 0.261-0.796s-0.504-0.409-0.796-0.261c-0.69 0.349-1.409 0.526-2.136 0.526-1.327 0-2.624-0.594-3.75-1.717-0.177-0.177-0.447-0.223-0.673-0.115-1.733 0.825-3.2 2.116-4.242 3.732-1.070 1.661-1.636 3.588-1.636 5.573v0.008c0 0.167 0.071 0.326 0.194 0.439 1.234 1.119 2.632 2.019 4.155 2.676 0.076 0.033 0.156 0.049 0.234 0.049 0.229 0 0.447-0.134 0.544-0.358 0.129-0.3-0.009-0.649-0.309-0.778z"></path>
        <path fill="#fff" style="fill: var(--color1, #fff)" d="M5.514 24.927c-0.211 0.509 0.358 1.013 0.838 0.741 0.256-0.145 0.37-0.469 0.255-0.741-0.19-0.485-0.898-0.47-1.093-0z"></path>
        <path fill="#fff" style="fill: var(--color1, #fff)" d="M6.607 24.927c-0.014-0.036 0.015 0.036 0 0v0z"></path>
        <path fill="#fff" style="fill: var(--color1, #fff)" d="M23.947 2.778c0.895-0.863 2.073-1.339 3.316-1.339 2.635 0 4.778 2.143 4.778 4.778 0 1.354-0.561 2.996-1.465 4.284-0.957 1.365-2.165 2.147-3.313 2.147-0.442 0-0.889-0.111-1.33-0.33-0.293-0.146-0.648-0.026-0.794 0.267s-0.026 0.648 0.267 0.794c0.606 0.301 1.23 0.454 1.857 0.454 1.562 0 3.083-0.942 4.282-2.651 1.052-1.499 1.68-3.355 1.68-4.964 0-3.288-2.675-5.962-5.962-5.962-1.552 0-3.021 0.593-4.138 1.671-0.235 0.227-0.242 0.602-0.015 0.837s0.602 0.242 0.837 0.015z"></path>
    </symbol>
    <symbol id="bucket-icon" viewBox="0 0 28 32">
        <path d="M1.58 4.938h4.741v-1.58c0-0.838 0.333-1.642 0.926-2.235s1.397-0.926 2.235-0.926h9.481c0.838 0 1.642 0.333 2.235 0.926s0.926 1.397 0.926 2.235v1.58h4.741c0.419 0 0.821 0.167 1.117 0.463s0.463 0.698 0.463 1.117c0 0.419-0.166 0.821-0.463 1.117s-0.698 0.463-1.117 0.463h-1.58v20.543c0 0.838-0.333 1.642-0.926 2.235s-1.397 0.926-2.235 0.926h-15.802c-0.838 0-1.642-0.333-2.235-0.926s-0.926-1.397-0.926-2.235v-20.543h-1.58c-0.419 0-0.821-0.167-1.117-0.463s-0.463-0.698-0.463-1.117c0-0.419 0.167-0.821 0.463-1.117s0.698-0.463 1.117-0.463zM6.321 8.099v20.543h15.802v-20.543h-15.802zM9.481 4.938h9.481v-1.58h-9.481v1.58zM9.481 11.259h3.16v14.222h-3.16v-14.222zM15.803 11.259h3.16v14.222h-3.16v-14.222z"></path>
    </symbol>
    <symbol id="icon-lock" viewBox="0 0 32 32">
        <path d="M10.182 14.545h11.636v-4.364c0-1.606-0.568-2.977-1.704-4.114s-2.508-1.705-4.114-1.705-2.977 0.568-4.114 1.705c-1.136 1.136-1.705 2.508-1.705 4.114v4.364zM29.091 16.727v13.091c0 0.606-0.212 1.121-0.636 1.545s-0.939 0.636-1.545 0.636h-21.818c-0.606 0-1.121-0.212-1.545-0.636s-0.636-0.939-0.636-1.545v-13.091c0-0.606 0.212-1.121 0.636-1.545s0.939-0.636 1.545-0.636h0.727v-4.364c0-2.788 1-5.182 3-7.182s4.394-3 7.182-3c2.788 0 5.182 1 7.182 3s3 4.394 3 7.182v4.364h0.727c0.606 0 1.121 0.212 1.545 0.636s0.636 0.939 0.636 1.545z"></path>
    </symbol>
    <symbol id="icon-heartbreak" viewBox="0 0 32 32">
        <path d="M17.862 1.172l-3.862 4.828 3 8-4 6 3 10c29.068-19.208 11.514-34.42 1.862-28.828zM14.716 1.54l-3.716 4.46 3 8-3 6 3.63 9.074c-27.696-19.154-9.26-34.008 0.086-27.534z"></path>
    </symbol>
</defs>
</svg>
